<?xml version="1.0" encoding="utf-8"?>
<svg xmlns="http://www.w3.org/2000/svg" xmlns:xlink="http://www.w3.org/1999/xlink" width="1024" height="1024" viewBox="0 0 1024 1024">
  <defs>
    <clipPath id="circle">
      <circle cx="512" cy="512" r="512"/>
    </clipPath>
  </defs>
  <g clip-path="url(#circle)">
    <path d="M0 0L1024 0L1024 1024L0 1024L0 0Z"/>
    <path fill="#11F787" d="M370.981 308.796C377.746 304.706 384.862 302.24 392 299.458C419.268 288.827 444.042 289.203 472.707 289.643C481.898 289.784 495.574 288.975 504.362 291.149C514.582 293.623 523.406 300.047 528.901 309.013C534.41 318.168 536.551 329.491 533.936 339.922C531.303 350.37 524.666 359.362 515.458 364.956C503.9 371.833 493.618 370.991 480.546 370.857C452.11 371.469 431.289 367.738 405.657 384.017C392.22 392.55 385.614 401.339 377.214 414.513C366.064 437.786 363.293 462.252 372.019 486.984C379.49 507.766 394.871 524.753 414.811 534.245C435.109 543.791 451.552 542.189 473.276 542.021C489.145 541.898 504.545 543.319 519.684 537.633C538.988 530.384 553.728 513.537 569.097 500.186C554.356 501.1 536.067 499.995 520.988 500.409C516.376 500.536 494.501 500.61 490.833 500.06C480.358 500.91 468.745 500.546 458.184 500.48C433.447 500.323 414.98 480.136 415.857 455.837C416.222 444.769 421.09 434.329 429.336 426.936C441.894 415.477 453.685 415.553 469.601 415.794C476.898 415.905 483.939 415.667 491.36 416.021C501.317 415.541 511.462 415.83 521.436 415.767C538.37 415.659 553.6 415.171 569.183 423.121C588.223 432.835 601.103 447.593 606.046 468.564C609.077 465.183 624.079 452.431 627.877 449.466C649.581 427.24 675.692 402.09 709.279 415.723C716.15 418.513 724.739 424.943 728.756 431.171C741.179 447.035 739.676 467.584 728.178 483.855C722.385 492.053 712.087 499.733 704.273 506.266L678.397 527.984L630.486 568.265C623.575 574.111 613.513 583.434 606.615 588.709C606.103 589.102 605.584 589.487 605.06 589.863C601.706 593.331 594.604 598.014 590.411 600.588C566.782 615.095 533.201 626.724 505.12 626.215C479.751 625.755 444.149 628.286 419.779 621.893C333.123 602.175 278.317 521.208 287.53 433.595C289.005 418.447 293.509 401.878 299.324 387.832C310.331 360.632 328.826 337.112 352.662 320C357.964 316.124 364.93 311.306 370.981 308.796Z"/>
    <defs>
      <linearGradient id="gradient_0" gradientUnits="userSpaceOnUse" x1="504.07629" y1="482.45615" x2="645.58466" y2="565.5672">
        <stop offset="0" stop-color="#F9EA16"/>
        <stop offset="1" stop-color="#FE5B7B"/>
      </linearGradient>
    </defs>
    <path fill="url(#gradient_0)" d="M627.877 449.466C649.581 427.24 675.692 402.09 709.279 415.723C716.15 418.513 724.739 424.943 728.756 431.171C741.179 447.035 739.676 467.584 728.178 483.855C722.385 492.053 712.087 499.733 704.273 506.266L678.397 527.984L630.486 568.265C623.575 574.111 613.513 583.434 606.615 588.709C606.103 589.102 605.584 589.487 605.06 589.863C601.706 593.331 594.604 598.014 590.411 600.588C566.782 615.095 533.201 626.724 505.12 626.215C479.751 625.755 444.149 628.286 419.779 621.893C433.959 611.964 440.212 606.411 450.847 592.504C462.703 577.002 476.965 562.523 494.003 552.876C509.103 544.327 525.452 540.185 541.991 535.317C546.009 534.476 550.36 533.768 554.402 533.137C579.7 529.188 599.946 514.354 606.865 489.101C607.711 480.505 607.698 476.952 606.046 468.564C609.077 465.183 624.079 452.431 627.877 449.466Z"/>
    <defs>
      <linearGradient id="gradient_1" gradientUnits="userSpaceOnUse" x1="630.33667" y1="495.20929" x2="690.32983" y2="536.50269">
        <stop offset="0" stop-color="#FF7A6F"/>
        <stop offset="1" stop-color="#D865AE"/>
      </linearGradient>
    </defs>
    <path fill="url(#gradient_1)" d="M661.705 441.05C667.35 433.526 676.144 429.019 685.548 428.83C694.952 428.642 703.92 432.792 709.863 440.083L710.282 439.156L709.056 437.662C709.471 435.883 721.621 433.73 725.8 430.094C727.33 430.249 726.999 430.424 728.366 431.928L728.756 431.171C741.179 447.035 739.676 467.584 728.178 483.855C722.385 492.053 712.087 499.733 704.273 506.266L678.397 527.984L630.486 568.265C623.575 574.111 613.513 583.434 606.615 588.709C606.103 589.102 605.584 589.487 605.06 589.863L604.472 589.42C601.823 591.307 592.05 599.358 589.71 598.666C589.405 598.191 588.527 596.84 588.446 596.189C586.86 583.549 596.018 563.794 601.309 552.354C602.827 549.071 608.564 544.716 609.308 543.058C612.184 536.657 614.216 530.624 617.436 524.343C620.026 519.291 623.25 516.084 626.11 511.379C626.829 510.196 627.454 506.758 628.15 505.339C633.237 494.968 638.853 485.106 644.511 475.065C647.789 469.246 650.682 468.49 654.314 463.688C655.778 461.752 655.041 454.302 655.554 451.591C655.986 449.305 656.862 448.803 657.353 447.182C658.063 444.84 659.288 442.086 661.263 440.445L661.705 441.05Z"/>
    <path fill="#FEFEFE" d="M661.705 441.05C667.35 433.526 676.144 429.019 685.548 428.83C694.952 428.642 703.92 432.792 709.863 440.083C719.925 452.428 718.825 470.43 707.336 481.459C695.846 492.487 677.814 492.85 665.891 482.291C653.968 471.732 652.147 453.789 661.705 441.05Z"/>
    <path fill="#ADED30" d="M627.877 449.466C627.707 451.693 625.856 454.267 624.608 456.145C617.571 466.736 612.108 477.522 606.865 489.101C607.711 480.505 607.698 476.952 606.046 468.564C609.077 465.183 624.079 452.431 627.877 449.466Z"/>
    <path fill="#ADED30" d="M370.981 308.796C377.746 304.706 384.862 302.24 392 299.458C419.268 288.827 444.042 289.203 472.707 289.643C481.898 289.784 495.574 288.975 504.362 291.149C514.582 293.623 523.406 300.047 528.901 309.013C534.41 318.168 536.551 329.491 533.936 339.922C531.303 350.37 524.666 359.362 515.458 364.956C503.9 371.833 493.618 370.991 480.546 370.857C453.044 370.06 424.425 370.156 396.888 370.556C389.182 370.669 381.016 373.159 373.427 374.183C375.443 372.4 377.911 373.237 378.232 369.182C378.765 362.454 377.942 355.294 378.594 348.602C379.079 342.573 379.899 335.759 379.194 329.731C378.546 324.178 376.01 318.171 375.518 312.5C375.526 312.59 377.163 309.343 377.269 307.938C375.94 307.47 372.817 308.481 370.981 308.796Z"/>
    <path fill="#FEFEFE" d="M490.833 500.06C480.358 500.91 468.745 500.546 458.184 500.48C433.447 500.323 414.98 480.136 415.857 455.837C416.222 444.769 421.09 434.329 429.336 426.936C441.894 415.477 453.685 415.553 469.601 415.794C476.898 415.905 483.939 415.667 491.36 416.021C494.762 417.8 498.875 418.651 502.553 420.383C512.044 424.854 519.877 434.211 523.335 443.992C527.058 454.84 526.292 466.725 521.208 477.005C516.288 487.079 506.842 494.818 496.234 498.281C494.488 498.851 492.495 499.332 490.833 500.06Z"/>
    <defs>
      <linearGradient id="gradient_2" gradientUnits="userSpaceOnUse" x1="281.83466" y1="374.7406" x2="383.62949" y2="362.46219">
        <stop offset="0" stop-color="#FFF81B"/>
        <stop offset="1" stop-color="#B0EE29"/>
      </linearGradient>
    </defs>
    <path fill="url(#gradient_2)" d="M370.981 308.796C372.817 308.481 375.94 307.47 377.269 307.938C377.163 309.343 375.526 312.59 375.518 312.5C376.01 318.171 378.546 324.178 379.194 329.731C379.899 335.759 379.079 342.573 378.594 348.602C377.942 355.294 378.765 362.454 378.232 369.182C377.911 373.237 375.443 372.4 373.427 374.183C368.094 375.826 361.82 377.284 356.704 379.048C340.393 384.673 317.157 397.426 306.165 410.369C301.409 414.501 297.726 418.967 294.237 424.154C292.937 426.087 288.971 432.324 287.53 433.595C289.005 418.447 293.509 401.878 299.324 387.832C310.331 360.632 328.826 337.112 352.662 320C357.964 316.124 364.93 311.306 370.981 308.796Z"/>
    <path fill="#01AC41" d="M373.427 374.183C381.016 373.159 389.182 370.669 396.888 370.556C424.425 370.156 453.044 370.06 480.546 370.857C452.11 371.469 431.289 367.738 405.657 384.017C392.22 392.55 385.614 401.339 377.214 414.513C378.173 406.407 391.745 394.92 396.07 388.935C388.808 387.097 383.219 388.995 376.294 388.58C369.395 388.167 363.18 388.352 356.25 388.489C349.667 388.618 342.92 385.635 336.496 389.064C328.938 393.098 321.915 397.884 315.311 403.339C313.439 404.857 308.117 410.192 306.165 410.369C317.157 397.426 340.393 384.673 356.704 379.048C361.82 377.284 368.094 375.826 373.427 374.183Z"/>
    <defs>
      <linearGradient id="gradient_3" gradientUnits="userSpaceOnUse" x1="527.08527" y1="665.05408" x2="572.36115" y2="746.19092">
        <stop offset="0" stop-color="#12A0D7"/>
        <stop offset="1" stop-color="#912FE1"/>
      </linearGradient>
    </defs>
    <path fill="url(#gradient_3)" d="M659.236 594.157C665.085 571.928 682.938 561.931 705.043 564.566C716.827 568.236 725.695 573.714 731.669 584.982C734.609 590.662 736.152 596.961 736.169 603.357C735.908 649.82 705.009 695.157 664.685 717.193C652.132 724.053 641.22 727.77 627.503 731.168C617.32 733.028 607.881 734.312 597.456 734.056C585.366 733.758 572.908 734.529 560.854 734.042C531.538 734.849 501.796 733.681 472.455 734.12C459.921 734.308 446.801 735.078 435.956 727.802C433.489 727.036 429.824 724.092 428.01 722.206C419.776 713.643 415.784 703.139 415.866 691.355C415.86 680.237 420.367 669.593 428.354 661.86C443.54 647.299 463.808 650.023 483.247 650.003C518.169 649.968 553.355 649.329 588.256 650.022C592.156 649.874 596.059 649.849 599.96 649.947C625.576 646.044 645.086 633.696 655.181 608.828C656.95 604.471 658.029 598.802 659.236 594.157Z"/>
    <defs>
      <linearGradient id="gradient_4" gradientUnits="userSpaceOnUse" x1="484.98779" y1="636.92108" x2="507.64008" y2="693.96112">
        <stop offset="0" stop-color="#00FF9B"/>
        <stop offset="1" stop-color="#1599D2"/>
      </linearGradient>
    </defs>
    <path fill="url(#gradient_4)" d="M435.956 727.802C433.489 727.036 429.824 724.092 428.01 722.206C419.776 713.643 415.784 703.139 415.866 691.355C415.86 680.237 420.367 669.593 428.354 661.86C443.54 647.299 463.808 650.023 483.247 650.003C518.169 649.968 553.355 649.329 588.256 650.022C587.73 650.144 585.504 650.664 585.196 650.887C575.281 658.039 564.704 664.647 553.732 670.082C549.188 671.809 544.679 673.515 540.182 675.367C528.248 680.267 516.634 685.882 504.236 689.569C502.131 690.196 499.534 691.2 497.395 691.462C481.786 693.374 468.136 701.109 453.663 706.675C449.294 708.356 444.528 714.985 440.713 717.881C438.399 719.684 433.527 721.805 432.891 724.556C434.668 726.797 435.458 725.959 435.956 727.802Z"/>
    <defs>
      <linearGradient id="gradient_5" gradientUnits="userSpaceOnUse" x1="678.18237" y1="641.05103" x2="655.56927" y2="584.89984">
        <stop offset="0" stop-color="#4F41AC"/>
        <stop offset="1" stop-color="#1F9ABF"/>
      </linearGradient>
    </defs>
    <path fill="url(#gradient_5)" d="M659.236 594.157C665.085 571.928 682.938 561.931 705.043 564.566C716.827 568.236 725.695 573.714 731.669 584.982C734.609 590.662 736.152 596.961 736.169 603.357C714.729 626.239 699.633 635.714 669.192 645.022C660.173 647.255 652.83 649.021 643.505 650.032C638.595 650.564 631.647 650.377 627.324 650.983C625.391 650.731 619.242 650.77 617.059 650.733C611.352 650.668 605.649 650.406 599.96 649.947C625.576 646.044 645.086 633.696 655.181 608.828C656.95 604.471 658.029 598.802 659.236 594.157Z"/>
    <path fill="#1E9FBC" d="M659.236 594.157C665.085 571.928 682.938 561.931 705.043 564.566C700.37 567.642 696.908 571.858 692.583 575.024C685.643 580.104 677.861 585.244 670.058 588.872C665.764 590.869 662.263 590.194 659.236 594.157Z"/>
    <defs>
      <linearGradient id="gradient_6" gradientUnits="userSpaceOnUse" x1="711.24176" y1="680.54767" x2="653.289" y2="655.54425">
        <stop offset="0" stop-color="#FF239E"/>
        <stop offset="1" stop-color="#B143CC"/>
      </linearGradient>
    </defs>
    <path fill="url(#gradient_6)" d="M736.169 603.357C735.908 649.82 705.009 695.157 664.685 717.193C652.132 724.053 641.22 727.77 627.503 731.168C621.832 709.358 645.414 688.94 654.353 670.692C656.597 666.111 662.61 649.804 665.244 647.138C667.18 646.493 667.65 646.336 669.192 645.022C699.633 635.714 714.729 626.239 736.169 603.357Z"/>
    <defs>
      <linearGradient id="gradient_7" gradientUnits="userSpaceOnUse" x1="645.76349" y1="699.56384" x2="620.10352" y2="683.74481">
        <stop offset="0" stop-color="#B93DC8"/>
        <stop offset="1" stop-color="#8650D4"/>
      </linearGradient>
    </defs>
    <path fill="url(#gradient_7)" d="M669.192 645.022C667.65 646.336 667.18 646.493 665.244 647.138C662.61 649.804 656.597 666.111 654.353 670.692C645.414 688.94 621.832 709.358 627.503 731.168C617.32 733.028 607.881 734.312 597.456 734.056C585.366 733.758 572.908 734.529 560.854 734.042C567.386 731.79 593.485 734.741 596.722 732.67C596.897 728.285 599.384 726.088 600.182 722.423C606.023 695.606 632.542 681.618 643.382 657.499C644.271 655.521 646.248 652.83 646.421 650.71C642.153 650.83 630.696 651.934 627.324 650.983C631.647 650.377 638.595 650.564 643.505 650.032C652.83 649.021 660.173 647.255 669.192 645.022Z"/>
    <defs>
      <linearGradient id="gradient_8" gradientUnits="userSpaceOnUse" x1="322.95868" y1="624.22083" x2="330.99533" y2="698.50354">
        <stop offset="0" stop-color="#BFF02C"/>
        <stop offset="1" stop-color="#6FF343"/>
      </linearGradient>
    </defs>
    <path fill="url(#gradient_8)" d="M291.249 707.807C288.927 702.682 288.163 696.018 288.363 690.432C289.153 668.381 284.304 647.583 304.012 632.055C312.629 625.23 323.642 622.184 334.542 623.61C350.27 625.682 365.668 639.316 368.594 654.353C370.446 663.863 370.31 690.729 369.011 700.391C367.302 710.982 361.438 720.453 352.718 726.703C343.93 732.888 331.513 734.692 321.115 732.77C310.67 730.783 301.447 724.715 295.489 715.909C294.068 713.804 291.997 710.219 291.249 707.807Z"/>
    <path fill="#11F787" d="M291.249 707.807C291.958 706.429 290.793 703.771 290.299 701.714C293.558 700.304 335.391 696.27 341.494 695.483C342.037 695.413 366.904 694.879 368.008 695.027C368.688 696.229 368.346 698.563 368.266 700.086L369.011 700.391C367.302 710.982 361.438 720.453 352.718 726.703C343.93 732.888 331.513 734.692 321.115 732.77C310.67 730.783 301.447 724.715 295.489 715.909C294.068 713.804 291.997 710.219 291.249 707.807Z"/>
    <path fill="#ADED30" d="M596.282 290.114C618.689 287.891 638.622 304.334 640.701 326.755C642.78 349.176 626.209 369.004 603.775 370.938C581.544 372.856 561.934 356.467 559.874 334.249C557.815 312.03 574.077 292.316 596.282 290.114Z"/>
    <defs>
      <linearGradient id="gradient_9" gradientUnits="userSpaceOnUse" x1="681.45972" y1="294.51935" x2="715.57111" y2="365.54477">
        <stop offset="0" stop-color="#FBE11D"/>
        <stop offset="1" stop-color="#F99545"/>
      </linearGradient>
    </defs>
    <path fill="url(#gradient_9)" d="M692.287 370.313C675.012 367.478 661.524 353.848 658.871 336.544C656.217 319.24 665.001 302.194 680.633 294.314C696.265 286.433 715.193 289.507 727.526 301.931C739.86 314.354 742.797 333.304 734.803 348.878C726.787 364.495 709.61 373.155 692.287 370.313Z"/>
    <path fill="#F78E52" d="M692.287 370.313L692.804 369.94L694.965 370.028C699.912 370.257 701.531 369.076 705.355 368.817C716.263 368.077 719.064 361.48 727.46 356.233C731.456 353.736 731.832 350.484 734.803 348.878C726.787 364.495 709.61 373.155 692.287 370.313Z"/>
  </g>
</svg>
