<?xml version="1.0" encoding="utf-8" ?><svg xmlns="http://www.w3.org/2000/svg" xmlns:xlink="http://www.w3.org/1999/xlink" width="1024" height="1024" viewBox="0 0 1024 1024"><path fill="#020201" d="M0 0L1024 0L1024 1024L0 1024L0 0Z"/><path fill="#F4F4F3" d="M464.84 196.709C478.193 197.016 483.196 202.319 492.341 211.082C499.906 218.332 507.293 225.784 514.763 233.126C532.202 250.171 549.548 267.31 566.8 284.544C582.821 300.405 599.297 315.951 615.146 332.001C617.517 334.866 621.573 338.487 622.859 342.007C628.016 356.115 617.582 368.869 603.309 368.28C575.083 367.114 559.7 347.141 541.381 329.401C521.218 310.097 501.28 290.56 481.572 270.793C485.338 303.655 487.77 344.297 478.926 376.577C470.77 408.809 456.185 437.2 431.695 459.99C424.734 466.468 412.631 476.375 404.301 480.918C387.67 489.988 361.014 500.299 342.196 499.923C354.996 495.699 361.571 495.332 374.094 486.925C385.225 479.453 392.998 471.828 401.058 461.152C433.903 417.649 432.729 369.377 432.566 318.363L432.57 255.433L432.392 237.387C432.273 225.254 431.705 216.604 440.561 206.796C447.338 199.29 455.129 197.243 464.84 196.709Z"/><path fill="#F4F4F3" d="M677.914 523.71L678.998 523.554L679.725 523.925L680.364 523.709C679.811 524.411 668.868 526.864 667.084 527.547C622.045 544.795 597.508 590.362 591.064 636.18C587.967 658.199 588.747 679.884 588.947 702.407L588.996 757.569C588.999 769.903 589.946 785.37 588.416 797.134C586.173 814.375 567.377 827.657 550.366 823.664C546.673 822.85 541.792 821.283 538.725 818.978C527.375 810.45 517.548 799.348 507.301 789.497C478.678 761.98 451.069 733.408 422.323 706.025C414.062 698.25 399.288 687.467 398.416 675.691C396.365 647.959 430.732 653.297 445.692 662.687C461.384 672.537 475.9 688.833 489.292 701.721L541.198 750.951C540.287 740.517 538.535 729.877 537.758 719.546C533.927 668.618 542.57 616.417 576.756 576.608C602.746 546.343 637.987 526.808 677.914 523.71Z"/><path fill="#F4F4F3" d="M344.107 401.662C363.807 401.651 365.194 418.207 360.97 433.374C354.838 455.397 339.806 466.222 324.587 482.13C305.997 501.56 286.399 520.601 268.23 540.577C276.195 540.175 285.095 539.059 293.182 538.431C303.522 537.688 313.884 537.282 324.251 537.215C374.184 536.754 421.782 552.907 458.116 588.106C481.746 610.998 498.943 647.862 499.125 681.039C495.047 665.383 492.262 656.116 482.419 642.817C454.011 605.734 399.87 589.243 354.449 589.03C342.514 588.974 330.462 589.345 318.502 589.379L249.9 589.456C227.29 589.666 199.546 594.075 193.27 563.701C189.154 543.78 208.008 531.11 220.592 518.48L269.208 469.531L310.019 428.043C320.226 417.542 328.754 403.917 344.107 401.662Z"/><path fill="#F4F4F3" d="M521.639 342.875C534.547 405.696 603.626 434.764 661.871 436.276C675.521 436.63 689.29 436.462 702.95 436.449L772.173 436.395C786.373 436.327 809.688 433.422 819.895 444.838C840.344 467.708 825.433 484.684 808.18 501.553C773.794 535.174 740.454 569.435 706.554 603.322C699.493 610.904 688.091 623.985 677.372 624.928C666.142 625.916 657.314 618.488 656.984 606.909C656.168 578.304 681.553 559.839 699.462 541.305C717.977 522.018 737.422 504.236 755.326 484.403C680.249 494.117 607.293 487.353 554.966 425.833C539.411 407.545 519.71 367.297 521.639 342.875Z"/></svg>