<?xml version="1.0" encoding="utf-8" ?><svg xmlns="http://www.w3.org/2000/svg" xmlns:xlink="http://www.w3.org/1999/xlink" width="1024" height="1024" viewBox="0 0 1024 1024"><path fill="#1A2F42" d="M0 0L1024 0L1024 1024L0 1024L0 0Z"/><defs><linearGradient id="gradient_0" gradientUnits="userSpaceOnUse" x1="460.28769" y1="258.05435" x2="565.99652" y2="772.46252"><stop offset="0" stop-color="#3E1500"/><stop offset="1" stop-color="#123351"/></linearGradient></defs><path fill="url(#gradient_0)" d="M491.659 275.221C500.181 270.264 508.674 267.074 518.703 269.459C524.978 270.952 527.762 273.498 532.424 275.221C535.85 273.846 578.923 274.736 585.081 274.763L663.146 274.918L718.652 274.91C730.441 274.895 749.094 273.36 759.549 277.89C760.557 278.332 761.551 278.802 762.532 279.3C773.639 282.501 784.138 299.357 784.827 310.605C785.594 323.13 784.994 335.667 784.951 348.22L784.979 427.92C784.984 439.118 784.391 461.264 785.363 471.716C785.769 459.575 785.371 445.744 785.343 433.495L785.32 372.719C785.192 362.663 785.254 352.606 785.505 342.553C785.55 340.344 785.56 333.016 785.916 331.164C786.928 345.746 786.238 368.407 786.239 383.451L786.136 480.884C786.054 499.686 787.975 519.077 786.955 538.035C786.821 540.531 786.57 542.634 786.165 545.087L786.043 545.868C786.028 554.109 785.764 622.067 786.588 623.364C787.677 617.403 786.738 609.971 787.006 603.87C787.613 590.013 787.356 574.61 787.508 560.946C787.568 555.554 786.833 528.969 787.759 526.562C788.303 528.349 787.869 548.131 787.87 551.66L787.917 633.102L788.1 705.692C788.241 737.544 794.881 773.049 755.676 784.326C736.319 789.893 712.902 787.787 692.693 787.787C672.066 787.896 651.438 787.894 630.811 787.781L477.141 787.789L344.563 787.712C334.528 787.669 324.606 787.686 314.487 787.733C297.162 787.812 277.347 789.339 261.525 780.892C252.782 776.224 243.099 765.892 240.092 756.261C236.193 742.604 238.676 726.899 238.283 712.959C237.639 690.107 239.01 667.414 237.997 644.597C237.82 640.633 238.114 635.959 237.686 632.131C219.026 632.173 222.922 612.817 224.311 599.818C222.071 592.946 232.73 544.951 233.264 533.489C233.711 523.875 235.783 510.869 236.905 501.152C237.485 496.12 239.857 489.85 241.63 485.014C240.376 481.759 241.34 368.835 240.953 356.498C240.695 348.277 240.496 327.276 240.537 317.777C240.553 314 240.914 309.428 241.659 305.608C244.292 296.275 247.587 290.438 254.989 284.119C268.802 272.328 282.136 274.84 298.931 274.737L360.276 274.719L442.187 274.796C454.535 274.75 479.84 274.069 491.659 275.221Z"/><defs><linearGradient id="gradient_1" gradientUnits="userSpaceOnUse" x1="513.80511" y1="763.2887" x2="512.09253" y2="548.16058"><stop offset="0" stop-color="#2F3B56"/><stop offset="1" stop-color="#4F5E85"/></linearGradient></defs><path fill="url(#gradient_1)" d="M786.043 545.868C786.028 554.109 785.764 622.067 786.588 623.364C787.677 617.403 786.738 609.971 787.006 603.87C787.613 590.013 787.356 574.61 787.508 560.946C787.568 555.554 786.833 528.969 787.759 526.562C788.303 528.349 787.869 548.131 787.87 551.66L787.917 633.102L788.1 705.692C788.241 737.544 794.881 773.049 755.676 784.326C736.319 789.893 712.902 787.787 692.693 787.787C672.066 787.896 651.438 787.894 630.811 787.781L477.141 787.789L344.563 787.712C334.528 787.669 324.606 787.686 314.487 787.733C297.162 787.812 277.347 789.339 261.525 780.892C252.782 776.224 243.099 765.892 240.092 756.261C236.193 742.604 238.676 726.899 238.283 712.959C237.639 690.107 239.01 667.414 237.997 644.597C237.82 640.633 238.114 635.959 237.686 632.131L240.072 632.3C247.554 632.219 255.037 632.262 262.518 632.429C262.492 637.877 262.638 644.959 262.323 650.278C262.128 655.661 264.036 674.91 263.206 677.496L262.402 676.669C262.761 686.794 262.518 696.862 262.518 707.002C262.519 719.542 265.996 731.268 278.625 736.532C280.673 737.386 282.778 738.16 285.009 738.356C302.802 739.326 320.567 738.528 338.379 738.576L465.233 737.979C469.961 737.934 475.103 738.689 479.924 738.852C505.776 739.723 531.48 739.178 557.317 738.999L619.138 739.026L699.609 738.468C710.516 738.343 721.465 738.719 732.355 738.434C741.427 738.192 749.694 736.181 756.042 729.238C765.085 719.456 764.47 706.242 764.416 693.741C764.339 675.66 764.796 657.185 764.059 639.111C764.723 633.387 764.488 621.084 764.471 614.89L764.381 575.217C764.749 568.517 764.093 555.128 764.115 547.664C768.121 548.024 775.53 548.576 779.295 547.3C781.13 546.678 782.935 545.039 785.197 544.697L785.577 545.862L786.043 545.868Z"/><defs><linearGradient id="gradient_2" gradientUnits="userSpaceOnUse" x1="514.1651" y1="619.59265" x2="511.08441" y2="790.55591"><stop offset="0" stop-color="#02090E"/><stop offset="1" stop-color="#0D1E30"/></linearGradient></defs><path fill="url(#gradient_2)" d="M786.043 545.868C786.028 554.109 785.764 622.067 786.588 623.364C787.677 617.403 786.738 609.971 787.006 603.87C787.613 590.013 787.356 574.61 787.508 560.946C787.568 555.554 786.833 528.969 787.759 526.562C788.303 528.349 787.869 548.131 787.87 551.66L787.917 633.102L788.1 705.692C788.241 737.544 794.881 773.049 755.676 784.326C736.319 789.893 712.902 787.787 692.693 787.787C672.066 787.896 651.438 787.894 630.811 787.781L477.141 787.789L344.563 787.712C334.528 787.669 324.606 787.686 314.487 787.733C297.162 787.812 277.347 789.339 261.525 780.892C252.782 776.224 243.099 765.892 240.092 756.261C236.193 742.604 238.676 726.899 238.283 712.959C237.639 690.107 239.01 667.414 237.997 644.597C237.82 640.633 238.114 635.959 237.686 632.131L240.072 632.3C240.331 644.222 240.64 656.137 240.609 668.061C240.601 671.125 240.564 674.208 240.913 677.257C241.038 685.853 240.987 695.64 240.901 704.107C240.73 721.108 241.345 736.26 253.912 749.228C264.179 759.822 276.626 762.738 290.775 762.84C321.939 763.062 353.102 762.874 384.25 762.918L583.241 762.962L688.01 762.807C702.803 762.778 717.633 763.062 732.407 762.802C747.282 762.54 759.424 759.955 770.556 749.698C787.32 734.253 785.688 716.362 785.531 695.704L785.365 662.948C785.143 624.824 784.844 583.789 785.577 545.862L786.043 545.868Z"/><path fill="#252C37" d="M240.072 632.3C247.554 632.219 255.037 632.262 262.518 632.429C262.492 637.877 262.638 644.959 262.323 650.278C262.128 655.661 264.036 674.91 263.206 677.496L262.402 676.669C262.176 667.94 261.86 658.844 262.012 650.136C254.996 650.201 247.98 650.137 240.966 649.945C241.015 658.949 241.191 668.283 240.913 677.257C240.564 674.208 240.601 671.125 240.609 668.061C240.64 656.137 240.331 644.222 240.072 632.3Z"/><path fill="#7B1A0F" d="M224.311 599.818C229.554 568.496 234.338 537.161 239.838 505.88C244.085 481.725 249.654 486.163 272.067 485.955C283.053 485.787 294.041 485.726 305.028 485.771C314.225 485.8 322.443 485.024 331.144 488.593C346.373 494.841 352.74 508.077 352.123 524.03C351.619 537.088 348.629 547.079 338.55 555.879C345.998 562.564 348.881 569.129 349.355 578.988C349.912 590.599 343.197 608.245 335.477 616.645C317.518 636.184 289.613 630.701 266.445 632.376L262.518 632.429C255.037 632.262 247.554 632.219 240.072 632.3L237.686 632.131C219.026 632.173 222.922 612.817 224.311 599.818Z"/><path fill="#F3E3C1" d="M252.759 495.857C253.065 495.158 253.361 493.937 254.351 493.892C272.172 493.082 290.192 493.748 308.062 493.579C316.214 493.502 324.511 493.8 331.773 497.917C337.889 501.392 342.334 507.2 344.089 514.012C346.23 522.006 345.385 533.834 341.03 541.003C336.651 548.212 330.74 551.4 323.473 554.893C331.319 559.05 339.329 563.367 341.714 572.635C347.349 594.538 331.938 614.415 311.683 620.056L311.186 620.19C311.061 620.714 310.83 621.262 310.949 621.797C309.221 623.223 306.505 624.498 304.236 623.852C297.757 624.754 240.885 625.237 234.9 623.54C233.209 621.959 230.301 619.189 230.687 616.625C234.081 594.087 237.273 570.976 241.697 548.619C242.083 545.969 242.679 540.948 243.375 538.576C243.512 530.015 246.401 520.103 247.569 511.48C247.958 508.613 249.142 496.718 250.643 495.194C252.162 495.068 251.469 494.89 252.759 495.857Z"/><path fill="#3D1109" d="M243.375 538.576C243.512 530.015 246.401 520.103 247.569 511.48C247.958 508.613 249.142 496.718 250.643 495.194C252.162 495.068 251.469 494.89 252.759 495.857C250.718 509.568 248.82 524.866 246.393 538.345C246.145 539.888 245.123 546.86 244.699 547.868C242.436 570.164 236.78 592.825 234.741 615.223C234.236 620.771 239.632 621.988 243.992 621.949C262.69 621.782 281.68 622.412 300.352 621.895C302.047 622.098 303.549 622.267 305.225 622.59L305.278 623.214C304.931 623.427 304.584 623.639 304.236 623.852C297.757 624.754 240.885 625.237 234.9 623.54C233.209 621.959 230.301 619.189 230.687 616.625C234.081 594.087 237.273 570.976 241.697 548.619C242.083 545.969 242.679 540.948 243.375 538.576Z"/><path fill="#59180E" d="M300.352 621.895C304.573 621.456 307.055 621.095 311.186 620.19C311.061 620.714 310.83 621.262 310.949 621.797C309.221 623.223 306.505 624.498 304.236 623.852C304.584 623.639 304.931 623.427 305.278 623.214L305.225 622.59C303.549 622.267 302.047 622.098 300.352 621.895Z"/><defs><linearGradient id="gradient_3" gradientUnits="userSpaceOnUse" x1="294.97977" y1="588.81219" x2="285.80258" y2="495.02414"><stop offset="0" stop-color="#FBAF3B"/><stop offset="1" stop-color="#FEEE6F"/></linearGradient></defs><path fill="url(#gradient_3)" d="M241.774 590.235C243.336 580.398 255.146 500.526 256.801 498.067C260.197 496.736 265.14 496.669 268.861 496.776C286.886 497.292 308.728 494.659 326.183 499.204C341.839 503.28 344.558 523.002 339.507 535.933C335.739 545.581 327.52 549.636 318.556 553.336L318.852 553.8C326.25 565.552 341.443 560.53 339.327 584.498C337.14 600.841 326.285 614.12 309.404 617.065C295.515 619.489 280.466 617.832 266.381 618.274C259.152 618.311 244.999 618.469 238.462 617.707C238.847 608.978 240.469 598.908 241.774 590.235Z"/><defs><linearGradient id="gradient_4" gradientUnits="userSpaceOnUse" x1="289.77548" y1="617.6507" x2="287.99222" y2="588.26123"><stop offset="0" stop-color="#F56C21"/><stop offset="1" stop-color="#FC9134"/></linearGradient></defs><path fill="url(#gradient_4)" d="M308.219 587.977C320.475 588.287 330.26 584.388 339.327 584.498C337.14 600.841 326.285 614.12 309.404 617.065C295.515 619.489 280.466 617.832 266.381 618.274C259.152 618.311 244.999 618.469 238.462 617.707C238.847 608.978 240.469 598.908 241.774 590.235C246.479 590.521 262.677 590.39 264.938 593.354C268.064 595.031 280.33 594.471 284.292 594.546C293.2 594.716 301.247 594.031 308.219 587.977Z"/><path fill="#F3E3C1" d="M264.938 593.354C265.435 587.198 266.787 580.772 267.628 574.627C268.3 571.347 268.696 564.052 272.929 563.459C279.646 562.52 289.072 562.009 295.681 563.204C309.839 565.764 316.433 575.225 308.219 587.977C301.247 594.031 293.2 594.716 284.292 594.546C280.33 594.471 268.064 595.031 264.938 593.354Z"/><path fill="#7B1A0F" d="M274.031 566.239C284.717 566.029 301.633 563.853 308.435 573.515C308.919 581.451 308.029 584.976 301.039 589.098C300.252 589.394 299.451 589.65 298.638 589.866C294.278 591.009 273.124 592.017 269.533 589.932C268.357 586.874 271.706 573.605 272.226 569.5C272.483 567.47 272.728 567.068 274.031 566.239Z"/><path fill="#2A1D1C" d="M279.5 576.099C280.181 576.018 280.864 575.953 281.548 575.903C285.855 575.583 309.391 575.042 297.724 583.958C291.18 585.429 284.169 585.017 277.42 584.994C277.78 581.726 277.765 578.833 279.5 576.099Z"/><path fill="#F3E3C1" d="M277.454 519.974C277.87 519.107 278.481 517.789 279.372 517.39C283.833 515.392 298.199 516.502 302.326 517.413C308.013 518.456 311.612 520.266 315.013 525.176C315.509 525.89 315.977 526.623 316.415 527.375C316.689 533.381 316.931 537.784 312.683 542.84C308.137 548.112 300.289 548.841 293.702 549.016C288.877 549.144 278.483 549.881 274.642 546.911C272.627 545.352 275.355 533.232 275.75 530.325C276.173 527.213 277.084 523.278 277.454 519.974Z"/><path fill="#7B1A0F" d="M289.655 519.88C291.923 519.903 295.454 519.834 297.627 519.975C309.763 519.84 318.804 530.095 310.277 540.465C303.794 547.517 286.722 545.216 277.456 544.986C278.29 537.123 279.837 528.634 280.848 520.6C283.23 519.592 286.922 519.886 289.655 519.88Z"/><path fill="#3D1109" d="M297.627 519.975C309.763 519.84 318.804 530.095 310.277 540.465C307.651 538.505 309.019 536.039 308.841 532.763C308.329 523.308 302.888 525.665 298.982 522.38L299.241 522.42L299.078 521.534C298.127 520.901 298.153 520.977 297.627 519.975Z"/><path fill="#2A1D1C" d="M289.834 529.156C293.664 528.915 298.457 528.393 301.495 531.133C304.254 533.62 300.609 536.433 298.869 537.681C295.137 538.728 289.889 540.12 287.526 536.232C287.227 533.515 288.472 531.486 289.834 529.156Z"/><path fill="#556A95" d="M532.424 275.221C535.85 273.846 578.923 274.736 585.081 274.763L663.146 274.918L718.652 274.91C730.441 274.895 749.094 273.36 759.549 277.89C760.557 278.332 761.551 278.802 762.532 279.3C773.639 282.501 784.138 299.357 784.827 310.605C785.594 323.13 784.994 335.667 784.951 348.22L784.979 427.92C784.984 439.118 784.391 461.264 785.363 471.716C785.284 477.848 785.29 483.98 785.381 490.112C778.801 480.433 775.459 480.374 764.511 480.075C764.333 477.143 764.064 473.746 764.101 470.843C764.497 440.374 763.911 409.913 764.168 379.43C764.36 365.286 764.347 351.139 764.129 336.995C763.989 320.065 766.217 298.089 742.427 294.019C734.939 292.738 724.974 293.488 717.245 293.513L678.783 293.491L551.26 293.553C546.341 288.964 540.949 283.201 536.185 278.339L532.424 275.221Z"/><path fill="#909FC4" d="M532.424 275.221C535.85 273.846 578.923 274.736 585.081 274.763L663.146 274.918L718.652 274.91C730.441 274.895 749.094 273.36 759.549 277.89C760.557 278.332 761.551 278.802 762.532 279.3C760.056 279.838 756.971 276.848 753.954 277.525L754.127 278.762C755.228 279.577 755.433 279.756 756.729 280.267L757.65 280.622L757.561 280.972C740.065 277.111 715.844 278.44 697.316 278.456L600.501 278.623C587.369 278.809 574.235 278.901 561.101 278.899C552.813 278.901 544.432 279.081 536.185 278.339L532.424 275.221Z"/><path fill="#556A95" d="M241.659 305.608C244.292 296.275 247.587 290.438 254.989 284.119C268.802 272.328 282.136 274.84 298.931 274.737L360.276 274.719L442.187 274.796C454.535 274.75 479.84 274.069 491.659 275.221L488.517 278.277C484.477 282.302 477.082 290.088 472.94 293.463L346.867 293.446C330.617 293.413 314.412 293.558 298.128 293.375C288.776 293.27 277.529 292.846 270.304 299.954C262.247 307.88 261.043 315.813 261.044 326.754L261.44 408.547L261.466 450.115C261.41 458.669 260.935 468.227 261.182 476.675C252.411 477.552 248.04 478.353 241.63 485.014C240.376 481.759 241.34 368.835 240.953 356.498C240.695 348.277 240.496 327.276 240.537 317.777C240.553 314 240.914 309.428 241.659 305.608Z"/><defs><linearGradient id="gradient_5" gradientUnits="userSpaceOnUse" x1="359.90192" y1="326.01663" x2="371.90414" y2="255.6208"><stop offset="0" stop-color="#778FB6"/><stop offset="1" stop-color="#98A3C8"/></linearGradient></defs><path fill="url(#gradient_5)" d="M241.659 305.608C244.292 296.275 247.587 290.438 254.989 284.119C268.802 272.328 282.136 274.84 298.931 274.737L360.276 274.719L442.187 274.796C454.535 274.75 479.84 274.069 491.659 275.221L488.517 278.277C473.58 279.326 451.001 278.422 435.564 278.429L328.437 278.448L299.022 278.425C270.079 278.405 258.027 277.983 244.01 306.043L243.013 306.674C241.971 306.15 242.225 306.47 241.659 305.608Z"/><path fill="#1A9AE4" d="M754.407 585.557C756.926 585.849 756.999 585.428 758.564 586.777C759.725 589.607 759.025 593.123 758.835 596.44C757.616 607.971 758.988 623.099 758.375 635.096C756.407 636.61 752.907 642.335 751.296 644.786C746.559 651.992 725.18 652.66 717.636 650.64C716.675 649.541 716.809 646.712 716.717 645.041C726.196 644.051 740.889 641.161 741.986 629.605C742.964 619.303 749.827 594.846 749.359 585.74L754.407 585.557Z"/><path fill="#69C0E2" d="M754.407 585.557C756.926 585.849 756.999 585.428 758.564 586.777C759.725 589.607 759.025 593.123 758.835 596.44L757.925 596.197C755.712 593.24 752.935 590.434 750.189 587.966C749.556 587.398 749.662 586.898 749.359 585.74L754.407 585.557Z"/><path fill="#556A95" d="M758.375 635.096L758.992 635.619C758.866 643.063 758.629 653.288 758.976 660.602L716.731 660.963C716.606 656.039 716.352 649.887 716.717 645.041C716.809 646.712 716.675 649.541 717.636 650.64C725.18 652.66 746.559 651.992 751.296 644.786C752.907 642.335 756.407 636.61 758.375 635.096Z"/><path fill="#1A2F42" d="M754.407 585.557C756.919 585.191 757.97 584.692 759.914 586.409C760.698 588.519 760.16 595.549 760.139 598.329C761.451 597.954 761.929 597.963 763.02 597.207C763.68 589.057 762.824 583.837 764.297 575.663L764.381 575.217L764.471 614.89C764.488 621.084 764.723 633.387 764.059 639.111C763.662 636.623 763.801 632.067 763.732 629.287L763.313 604.072L762.663 603.632C758.148 605.591 759.153 612.079 759.298 616.26C759.538 623.154 759.882 628.695 758.992 635.619L758.375 635.096C758.988 623.099 757.616 607.971 758.835 596.44C759.025 593.123 759.725 589.607 758.564 586.777C756.999 585.428 756.926 585.849 754.407 585.557Z"/><path fill="#050709" d="M262.518 632.429L266.445 632.376C266.425 635.799 266.926 648.951 266.581 651.096C265.118 651.469 264.047 650.801 262.323 650.278C262.638 644.959 262.492 637.877 262.518 632.429Z"/><path fill="#7B1A0F" d="M374.994 486.519C379.602 486.611 384.393 486.785 388.985 486.791C400.574 486.806 409.051 483.721 415.96 495.513C416.34 505.474 414.413 514.219 412.741 524.07L407.359 556.051C405.475 566.753 403.582 575.022 402.927 585.951C410.106 585.749 417.29 585.554 424.468 585.476C433.41 585.379 438.132 586.725 444.811 592.722C448.978 586.604 457.571 568.476 461.063 561.312C467.521 548.194 474.087 535.13 480.76 522.12C484.575 514.533 490.313 502.256 495.806 496.167C499.457 495.361 511.395 496.631 516.04 495.735C514.005 496.127 528.193 496.242 526.949 496.117C531.414 493.81 531.198 492.545 536.525 490.474C539.438 491.248 542.2 492.627 543.843 495.269C547.214 500.688 555.474 561.406 556.773 571.88C557.586 578.442 557.978 585.062 558.824 591.609C562.317 588.2 575.697 573.835 580.913 574.035C590.087 574.387 611.281 594.735 621.902 587.648C623.02 586.902 623.065 585.916 623.116 584.847C620.432 579.358 599.579 572.505 592.841 568.314C563.902 550.312 567.224 508.071 598.319 494.423C622.275 483.908 648.688 489.657 670.038 504.011L676.514 503.853C680.231 486.655 690.374 492.28 704.324 491.395C726.046 490.017 749.329 494.896 769.976 487.069C776.097 484.749 781.961 492.734 781.12 498.156C780.764 533.84 783.074 529.465 750.987 531.148C749 535.318 746.901 547.347 746 552.246L736.751 602.688C732.966 622.888 735.864 631.83 710.487 630.792C701.392 630.998 680.968 632.449 683.588 617.289C688.412 589.371 693.933 559.778 699.854 532.061C690.068 531.769 678.9 533.94 671.607 527.026C663.902 532.736 660.915 536.93 651.374 540.428C643.195 536.775 635.437 530.215 626.19 529.495C623.486 529.285 619.855 530.546 620.416 533.84C624.255 537.235 635.078 540.533 640.588 542.707C652.069 547.106 663.901 553.515 669.142 565.365C679.643 589.11 662.315 617.615 640.092 626.901C622.945 634.066 599.702 633.066 582.869 625.508C575.858 622.36 569.244 617.519 562.092 614.659C562.067 619.192 564.065 625.743 559.152 628.456C551.061 632.939 539.662 631.443 531.042 631.733C513.038 632.339 515.025 622.448 510.474 609.307C509.498 606.49 491.972 607.061 490.944 608.067C483.936 614.93 484.789 625.044 475.735 631.373C467.235 631.735 458.602 631.637 450.095 631.363C445.605 631.219 440.819 630.212 436.351 630.246C431.549 630.282 426.516 631.265 421.69 631.337C405.02 631.645 388.329 631.633 371.655 631.64C365.671 631.642 359.776 631.628 353.865 630.579C347.367 624.838 347.289 619.758 348.877 611.84C350.503 603.735 352.148 595.529 353.39 587.359C356.638 564.479 360.286 541.658 364.333 518.905C365.733 510.584 366.738 502.078 368.288 493.79C369 489.989 371.911 488.501 374.994 486.519Z"/><path fill="#F3E3C1" d="M526.949 496.117C531.414 493.81 531.198 492.545 536.525 490.474C537.634 493.072 538.055 493.658 538.087 496.48C539.454 515.434 556.397 611.508 552.66 621.767C547.082 622.086 525.502 623.029 521.844 620.405C520.417 617.934 520.172 613.869 519.762 610.875C519.641 607.379 518.74 601.733 518.273 598.114C506.667 597.983 495.06 597.952 483.453 598.02C479.432 605.859 475.877 614.493 471.783 622.574C462.712 621.879 454.131 622.781 445.364 621.748C442.344 621.392 441.204 619.831 439.576 617.49C442.136 609.325 448.449 597.526 452.403 589.59L475.627 543.582L486.048 522.85C487.266 520.426 490.18 514.214 491.655 512.4C493.186 508.6 495.689 503.823 498.041 500.466C507.57 501.584 510.267 502.253 519.712 499.476L523.58 497.849L526.893 496.736L526.949 496.117Z"/><path fill="#FDD968" d="M522.227 502.809C525.712 501.383 529.698 499.73 533.489 499.648L534.43 500.122C536.095 505.97 537.958 519.853 538.799 526.372C539.816 534.264 542.967 549.348 543.332 556.954C543.893 562.096 544.505 567.232 545.168 572.361C537.73 571.824 529.917 571.264 522.567 569.795C519.305 569.144 518.754 571.169 518.045 574.13L517.824 574.794C515.985 575.982 497.514 575.5 494.192 575.439C491.854 575.395 490.486 575.163 489.008 573.45C486.047 571.983 468.774 573.996 464.164 574.416C472.117 557.052 483.485 536.232 492.378 518.603C502.549 497.36 505.593 510.44 522.227 502.809Z"/><path fill="#7B1A0F" d="M498.641 557.578C500.251 554.222 510.409 525.647 511.562 525.048L512.051 526.428C512.161 542.853 514.646 556.817 515.067 571.971C508.542 572.022 499.555 572.309 493.254 571.798C494.952 566.904 497.024 562.235 498.641 557.578Z"/><defs><linearGradient id="gradient_6" gradientUnits="userSpaceOnUse" x1="523.40289" y1="545.42615" x2="485.33667" y2="563.88123"><stop offset="0" stop-color="#F9E2B9"/><stop offset="1" stop-color="#F5F4DC"/></linearGradient></defs><path fill="url(#gradient_6)" d="M514.677 525.626C516.251 531.211 516.073 547.643 516.738 553.953C516.934 555.817 516.795 559.263 517.316 560.902C517.634 565.032 518.161 570.065 518.045 574.13L517.824 574.794C515.985 575.982 497.514 575.5 494.192 575.439C491.854 575.395 490.486 575.163 489.008 573.45C491.225 567.818 494.021 559.68 496.552 554.487L496.982 555.289C497.464 554.001 497.978 552.725 498.521 551.461L499.275 551.465C500.354 554.065 497.449 556.021 498.239 557.547L498.641 557.578C497.024 562.235 494.952 566.904 493.254 571.798C499.555 572.309 508.542 572.022 515.067 571.971C514.646 556.817 512.161 542.853 512.051 526.428L512.41 526.481C513.273 525.9 513.223 525.981 514.206 525.59L514.07 526.214L514.677 525.626Z"/><path fill="#F3E3C1" d="M513.23 510.986C513.573 515.838 514.25 520.741 514.677 525.626L514.07 526.214L514.206 525.59C513.223 525.981 513.273 525.9 512.41 526.481L512.051 526.428L511.562 525.048C510.409 525.647 500.251 554.222 498.641 557.578L498.239 557.547C497.449 556.021 500.354 554.065 499.275 551.465L498.521 551.461C497.978 552.725 497.464 554.001 496.982 555.289L496.552 554.487C496.885 552.881 500.308 544.269 501.142 542.067C505.001 531.641 509.031 521.28 513.23 510.986Z"/><path fill="#F5B556" d="M517.316 560.902L517.673 559.977L517.935 560.129C518.05 561.993 518.012 567.83 519.408 568.757C519.056 565.767 519.087 558.948 520.184 556.219C520.839 557.658 520.612 565.432 520.751 568.073C523.608 570.053 526.604 567.519 529.055 568.226C532.754 569.293 540.439 572.068 544.311 571.266C544.178 567.375 542.382 560.194 542.644 556.609L543.332 556.954C543.893 562.096 544.505 567.232 545.168 572.361C537.73 571.824 529.917 571.264 522.567 569.795C519.305 569.144 518.754 571.169 518.045 574.13C518.161 570.065 517.634 565.032 517.316 560.902Z"/><path fill="#E28231" d="M518.045 574.13C518.754 571.169 519.305 569.144 522.567 569.795C529.917 571.264 537.73 571.824 545.168 572.361C546.059 579.377 551.53 614.188 549.323 618.156C545.405 619.992 528.978 618.768 523.893 618.467C523.179 612.624 522.101 600.235 520.714 595.206C514.954 594.102 488.732 594.069 481.968 594.486C477.219 602.649 474.34 611.123 469.493 619.393C463.667 619.031 448.427 619.997 444.47 618.596C441.853 613.479 460.674 581.086 464.164 574.416C468.774 573.996 486.047 571.983 489.008 573.45C490.486 575.163 491.854 575.395 494.192 575.439C497.514 575.5 515.985 575.982 517.824 574.794L518.045 574.13Z"/><path fill="#F8E09D" d="M498.041 500.466C507.57 501.584 510.267 502.253 519.712 499.476C519.917 501.517 519.543 501.637 520.685 502.613L522.227 502.809C505.593 510.44 502.549 497.36 492.378 518.603C492.344 514.375 496.48 506.086 500.431 504.123C501.673 503.506 502.183 503.296 503.447 502.467L502.809 501.839C493.658 500.931 497.394 508.652 491.655 512.4C493.186 508.6 495.689 503.823 498.041 500.466Z"/><path fill="#CD3939" d="M526.949 496.117C531.414 493.81 531.198 492.545 536.525 490.474C537.634 493.072 538.055 493.658 538.087 496.48L526.893 496.736L526.949 496.117Z"/><path fill="#59180E" d="M495.806 496.167C499.457 495.361 511.395 496.631 516.04 495.735C514.005 496.127 528.193 496.242 526.949 496.117L526.893 496.736L523.58 497.849C517.059 497.019 508.419 502.769 502.253 498.589C499.71 496.865 499.551 496.875 496.592 496.313L495.806 496.167Z"/><path fill="#59180E" d="M519.246 620.497C518.4 617.133 516.57 613.093 519.762 610.875C520.172 613.869 520.417 617.934 521.844 620.405C525.502 623.029 547.082 622.086 552.66 621.767L552.377 622.38C550.59 622.935 529.778 623.431 526.4 623.63L527.453 623.825C522.458 624.186 522.844 623.74 519.246 620.497Z"/><path fill="#2A1D1C" d="M670.038 504.011L676.514 503.853C675.97 505.34 675.206 506.913 674.544 508.371C673.083 506.787 671.615 505.469 670.038 504.011Z"/><defs><linearGradient id="gradient_7" gradientUnits="userSpaceOnUse" x1="635.52094" y1="584.89435" x2="617.84344" y2="498.28674"><stop offset="0" stop-color="#FDB93E"/><stop offset="1" stop-color="#FCF574"/></linearGradient></defs><path fill="url(#gradient_7)" d="M612.271 568.154C602.8 564.216 587.615 558.853 582.161 549.863C572.477 533.899 578.899 511.04 595.12 501.754C610.678 492.848 625.776 492.797 642.834 496.765C650.663 499.315 657.334 501.752 664.021 506.731C666.406 508.262 669.683 510.483 671.381 512.761L671.403 513.519C671.702 514.89 672.041 516.159 670.904 517.418C667.22 521.499 655.571 531.546 651.272 534.144C647.976 532.095 637.813 526.52 637.1 522.927L637.133 522.849C632.992 520.655 629.596 520.665 624.954 520.231C622.053 521.066 619.162 521.938 616.283 522.847C604.188 533.896 612.128 537.02 623.967 541.686C641.203 548.479 664.003 553.255 664.185 576.302C664.374 588.217 659.71 599.696 651.263 608.102C625.552 633.664 582.902 621.968 559.309 599.271C562.982 594.147 576.612 580.98 581.841 577.757C593.245 585.607 606.343 596.361 620.998 593.711C634.78 591.219 635.563 579.555 623.639 573.197C619.931 571.219 616.116 569.757 612.271 568.154Z"/><defs><linearGradient id="gradient_8" gradientUnits="userSpaceOnUse" x1="612.27625" y1="618.07306" x2="611.89886" y2="580.74872"><stop offset="0" stop-color="#F87522"/><stop offset="1" stop-color="#FBA43B"/></linearGradient></defs><path fill="url(#gradient_8)" d="M660.551 581.209C660.674 576.487 661.153 571.324 659.4 566.83C651.841 547.454 614.618 548.477 608.241 535.6C607.039 533.172 607.096 530.389 608.002 527.873C609.739 523.047 614.168 520.553 618.566 518.562L618.362 519.939L618.763 520.274C617.709 521.655 616.998 521.813 616.283 522.847C604.188 533.896 612.128 537.02 623.967 541.686C641.203 548.479 664.003 553.255 664.185 576.302C664.374 588.217 659.71 599.696 651.263 608.102C625.552 633.664 582.902 621.968 559.309 599.271C562.982 594.147 576.612 580.98 581.841 577.757C593.245 585.607 606.343 596.361 620.998 593.711C634.78 591.219 635.563 579.555 623.639 573.197C619.931 571.219 616.116 569.757 612.271 568.154C614.829 567.918 615.763 569.079 617.532 566.869C623.327 569.395 632.093 574.104 634.348 580.354C640.056 579.103 654.111 580.606 660.551 581.209Z"/><path fill="#F3E3C1" d="M660.551 581.209C660.674 576.487 661.153 571.324 659.4 566.83C651.841 547.454 614.618 548.477 608.241 535.6C607.039 533.172 607.096 530.389 608.002 527.873C609.739 523.047 614.168 520.553 618.566 518.562L618.362 519.939L618.763 520.274C617.709 521.655 616.998 521.813 616.283 522.847C604.188 533.896 612.128 537.02 623.967 541.686C641.203 548.479 664.003 553.255 664.185 576.302C664.374 588.217 659.71 599.696 651.263 608.102C625.552 633.664 582.902 621.968 559.309 599.271C562.982 594.147 576.612 580.98 581.841 577.757C593.245 585.607 606.343 596.361 620.998 593.711C634.78 591.219 635.563 579.555 623.639 573.197C619.931 571.219 616.116 569.757 612.271 568.154C614.829 567.918 615.763 569.079 617.532 566.869C623.327 569.395 632.093 574.104 634.348 580.354C634.585 584.725 634.185 590.197 630.798 593.136C616.685 605.383 591.828 589.442 581.622 581.671L563.25 598.982C570.943 605.642 579.826 611.049 589.186 615.129C615.7 626.686 659.268 615.456 660.551 581.209Z"/><defs><linearGradient id="gradient_9" gradientUnits="userSpaceOnUse" x1="580.86932" y1="518.73633" x2="632.75201" y2="533.65039"><stop offset="0" stop-color="#FBEAA8"/><stop offset="1" stop-color="#FFF9DE"/></linearGradient></defs><path fill="url(#gradient_9)" d="M612.271 568.154C602.8 564.216 587.615 558.853 582.161 549.863C572.477 533.899 578.899 511.04 595.12 501.754C610.678 492.848 625.776 492.797 642.834 496.765L643.18 498.354C642.379 499.396 642.339 499.293 641.089 499.789C631.72 497.596 620.703 497.593 610.999 499.137C588.237 502.759 573.854 526.826 584.34 547.842C588.928 557.039 608.385 562.514 617.532 566.869C615.763 569.079 614.829 567.918 612.271 568.154Z"/><path fill="#59180E" d="M671.403 513.519C671.702 514.89 672.041 516.159 670.904 517.418C667.22 521.499 655.571 531.546 651.272 534.144C647.976 532.095 637.813 526.52 637.1 522.927L637.133 522.849C642.818 525.054 645.434 528.136 649.432 530.019L650.559 530.469C653.818 529.348 665.49 518.979 668.552 516.19L671.403 513.519Z"/><path fill="#F7EAB1" d="M642.834 496.765C650.663 499.315 657.334 501.752 664.021 506.731L662.212 508.913C655.454 504.977 648.711 501.756 641.089 499.789C642.339 499.293 642.379 499.396 643.18 498.354L642.834 496.765Z"/><path fill="#F3E3C1" d="M666.224 514.572C668.02 515.098 667.231 514.638 668.552 516.19C665.49 518.979 653.818 529.348 650.559 530.469L649.432 530.019C649.811 528.103 649.412 528.927 650.655 527.443C655.657 522.851 661.01 518.916 666.224 514.572Z"/><path fill="#FDD968" d="M636.398 519.215C643.578 520.711 645.266 523.769 650.655 527.443C649.412 528.927 649.811 528.103 649.432 530.019C645.434 528.136 642.818 525.054 637.133 522.849C632.992 520.655 629.596 520.665 624.954 520.231C627.832 518.294 632.386 521.117 636.398 519.215Z"/><path fill="#F7EAB1" d="M618.566 518.562C625.462 516.793 629.556 517.008 636.398 519.215C632.386 521.117 627.832 518.294 624.954 520.231C622.053 521.066 619.162 521.938 616.283 522.847C616.998 521.813 617.709 521.655 618.763 520.274L618.362 519.939L618.566 518.562Z"/><path fill="#FDD968" d="M664.021 506.731C666.406 508.262 669.683 510.483 671.381 512.761L671.403 513.519L668.552 516.19C667.231 514.638 668.02 515.098 666.224 514.572C666.442 512.583 666.368 512.125 664.746 510.881L662.212 508.913L664.021 506.731Z"/><defs><linearGradient id="gradient_10" gradientUnits="userSpaceOnUse" x1="719.55127" y1="587.85364" x2="729.41144" y2="491.83209"><stop offset="0" stop-color="#FCB03A"/><stop offset="1" stop-color="#FCF974"/></linearGradient></defs><path fill="url(#gradient_10)" d="M752.125 496.459C758.887 495.885 765.007 495.294 771.822 495.53C771.954 504.356 772.004 513.68 771.423 522.49C764.642 522.65 751.095 523.29 744.768 522.389C742.258 524.668 740.355 538.687 739.589 542.853C736.621 559.096 733.544 575.32 730.357 591.521C729.643 595.204 725.73 619.391 723.239 620.102C718.063 621.579 694.146 622.107 690.196 618.948C689.912 614.635 692.529 605.787 693.34 601.186C695.279 590.194 698.129 575.908 700.051 565.225C701.092 559.436 708.703 526.656 708.312 523.596C707.465 522.974 707.733 523.024 706.785 522.76C701.636 523.166 682.345 523.831 678.796 521.526C677.793 519.794 678.039 520.726 678.22 518.586C678.784 513.076 680.059 507.895 681.607 502.593C682.861 499.412 683.14 498.054 685.957 496.298C694.301 496.304 715.274 495.764 722.827 496.521C732.593 496.355 742.36 496.334 752.125 496.459Z"/><defs><linearGradient id="gradient_11" gradientUnits="userSpaceOnUse" x1="710.63739" y1="617.02576" x2="710.3681" y2="587.08661"><stop offset="0" stop-color="#F77322"/><stop offset="1" stop-color="#FC9F36"/></linearGradient></defs><path fill="url(#gradient_11)" d="M699.581 586.88C704.905 586.973 724.876 585.874 727.83 587.153C726.594 593.153 723.197 613.83 721.526 617.934C712.293 618.158 703.056 618.028 693.833 617.542C694.715 608.356 697.586 596.099 699.581 586.88Z"/><path fill="#F3E3C1" d="M706.785 522.76L703.827 522.34L704.147 521.82L702.758 521.402L702.918 520.796C704.782 519.811 707.334 519.856 709.527 519.69C710.723 520.731 712.009 521.829 711.887 523.565C711.354 531.145 708.811 539.989 707.282 547.443L699.581 586.88C697.586 596.099 694.715 608.356 693.833 617.542C703.056 618.028 712.293 618.158 721.526 617.934C723.197 613.83 726.594 593.153 727.83 587.153C730.606 573.686 733.214 560.184 735.65 546.651C736.481 542.136 738.651 519.543 744.492 519.893L745.196 520.847L744.768 522.389C742.258 524.668 740.355 538.687 739.589 542.853C736.621 559.096 733.544 575.32 730.357 591.521C729.643 595.204 725.73 619.391 723.239 620.102C718.063 621.579 694.146 622.107 690.196 618.948C689.912 614.635 692.529 605.787 693.34 601.186C695.279 590.194 698.129 575.908 700.051 565.225C701.092 559.436 708.703 526.656 708.312 523.596C707.465 522.974 707.733 523.024 706.785 522.76Z"/><path fill="#F7EAB1" d="M685.957 496.298C694.301 496.304 715.274 495.764 722.827 496.521C725.231 497.12 725.966 496.978 728.415 496.567L729.158 497.484L728.371 497.478C725.475 497.481 708.396 499.174 705.717 499.901C700.211 499.94 694.556 499.891 689.073 500.259C686.472 499.111 686.458 498.89 685.957 496.298Z"/><path fill="#F8E09D" d="M722.827 496.521C732.593 496.355 742.36 496.334 752.125 496.459C742.843 502.084 728.275 499.24 717.554 499.808C714.375 499.976 708.882 500.055 705.717 499.901C708.396 499.174 725.475 497.481 728.371 497.478L729.158 497.484L728.415 496.567C725.966 496.978 725.231 497.12 722.827 496.521Z"/><path fill="#F8E09D" d="M681.607 502.593C682.861 499.412 683.14 498.054 685.957 496.298C686.458 498.89 686.472 499.111 689.073 500.259C686.115 501.079 685.942 501.536 684.608 504.298C683.978 508.482 682.086 514.861 682.505 518.422C682.407 518.965 682.488 518.72 682.19 519.296C681.812 520.029 681.242 519.965 680.488 520.206C678.511 519.606 679.193 520.189 678.22 518.586C678.784 513.076 680.059 507.895 681.607 502.593Z"/><path fill="#FDD968" d="M706.785 522.76C701.636 523.166 682.345 523.831 678.796 521.526C677.793 519.794 678.039 520.726 678.22 518.586C679.193 520.189 678.511 519.606 680.488 520.206C681.242 519.965 681.812 520.029 682.19 519.296C682.488 518.72 682.407 518.965 682.505 518.422C694.296 522.684 701.302 517.707 709.527 519.69C707.334 519.856 704.782 519.811 702.918 520.796L702.758 521.402L704.147 521.82L703.827 522.34L706.785 522.76Z"/><defs><linearGradient id="gradient_12" gradientUnits="userSpaceOnUse" x1="396.88562" y1="620.39813" x2="392.68405" y2="576.7395"><stop offset="0" stop-color="#F26621"/><stop offset="1" stop-color="#FDA138"/></linearGradient></defs><path fill="url(#gradient_12)" d="M375.595 492.57C380.41 492.21 404.597 491.664 407.308 494.251C408.976 499.056 405.96 513.877 404.755 519.352C401.211 543.027 395.59 567.499 392.306 591.063C405.708 591.056 421.215 590.692 434.475 591.596C435.852 592.76 437.139 593.79 438.384 595.103C436.943 600.492 434.501 618.498 429.948 621.108C427.223 622.671 360.733 622.852 357.265 621.295C355.86 620.664 354.974 619.911 353.934 618.796C353.012 615.779 366.153 541.378 367.982 533.172C369.902 522.4 372.866 502.459 375.595 492.57Z"/><path fill="#FDD968" d="M375.595 492.57C380.41 492.21 404.597 491.664 407.308 494.251C408.976 499.056 405.96 513.877 404.755 519.352C403.859 519.289 402.221 519.739 401.291 519.947C398.151 541.201 393.642 561.818 390.184 582.951C381.607 579.499 370.276 581.924 363.391 576.689C365.87 563.263 369.274 547.182 371.125 533.807L370.619 533.487C370.477 525.278 375.467 515.544 374.721 504.289L374.392 504.256C372.866 509.795 370.109 529.887 367.982 533.172C369.902 522.4 372.866 502.459 375.595 492.57Z"/><path fill="#F7EAB1" d="M375.595 492.57C380.41 492.21 404.597 491.664 407.308 494.251C408.976 499.056 405.96 513.877 404.755 519.352C403.859 519.289 402.221 519.739 401.291 519.947C402.481 512.773 404.561 503.413 403.149 496.452C399.479 496.319 381.366 494.913 379.671 497.883C375.75 504.755 375.437 517.583 372.682 525.605C371.809 528.115 372.029 532.196 371.125 533.807L370.619 533.487C370.477 525.278 375.467 515.544 374.721 504.289L374.392 504.256C372.866 509.795 370.109 529.887 367.982 533.172C369.902 522.4 372.866 502.459 375.595 492.57Z"/><path fill="#F3E3C1" d="M367.982 533.172C370.109 529.887 372.866 509.795 374.392 504.256L374.721 504.289C375.467 515.544 370.477 525.278 370.619 533.487L371.125 533.807C369.274 547.182 365.87 563.263 363.391 576.689C362.268 584.566 360.998 592.421 359.581 600.251C358.727 605.087 357.064 612.967 357.089 617.652C364.93 619.333 382.953 618.825 391.658 618.753C403.073 618.658 417.192 619.302 428.35 618.806C431.7 612.143 433.72 602.404 434.147 595.027C419.337 594.746 403.635 595.65 388.986 594.537C389.092 591.01 389.249 586.365 390.184 582.951C393.642 561.818 398.151 541.201 401.291 519.947C402.221 519.739 403.859 519.289 404.755 519.352C401.211 543.027 395.59 567.499 392.306 591.063C405.708 591.056 421.215 590.692 434.475 591.596C435.852 592.76 437.139 593.79 438.384 595.103C436.943 600.492 434.501 618.498 429.948 621.108C427.223 622.671 360.733 622.852 357.265 621.295C355.86 620.664 354.974 619.911 353.934 618.796C353.012 615.779 366.153 541.378 367.982 533.172Z"/><path fill="#FDD968" d="M417.346 365.776C424.856 356.879 440.916 342.264 449.641 333.369L477.779 304.769C484.338 297.987 490.733 291.052 497.657 284.572C503.158 279.425 506.567 278.981 514.049 279.249C518.129 279.404 522.488 281.084 525.618 283.773C535.695 292.431 544.649 303.081 553.939 312.568L578.586 337.601C583.1 342.138 589.535 348.247 593.615 352.997C597.036 356.075 599.841 359.012 603.015 362.318C604.669 364.111 606.3 365.84 607.85 367.727C613.395 373.446 615.579 378.242 615.612 386.446C615.659 398.27 607.483 405.196 599.364 413.058C575.942 435.736 553.5 459.746 529.798 482.16C520.417 491.007 508.299 494.376 497.351 485.741C493.687 482.844 490.369 479.322 487.04 476.043C480.381 469.541 473.801 462.959 467.301 456.299L440.102 428.398C432.099 420.268 424.196 412.537 416.509 404.059C405.635 392.065 404.845 381.914 415.013 368.853C415.639 367.906 416.631 366.704 417.346 365.776Z"/><path fill="#E28231" d="M607.85 367.727C613.395 373.446 615.579 378.242 615.612 386.446C615.659 398.27 607.483 405.196 599.364 413.058C575.942 435.736 553.5 459.746 529.798 482.16C520.417 491.007 508.299 494.376 497.351 485.741C493.687 482.844 490.369 479.322 487.04 476.043C480.381 469.541 473.801 462.959 467.301 456.299L440.102 428.398C432.099 420.268 424.196 412.537 416.509 404.059C405.635 392.065 404.845 381.914 415.013 368.853C414.872 374.214 413.413 381.499 417.383 385.866C426.597 395.999 436.815 405.253 446.558 414.874C458.427 426.805 470.473 438.559 482.691 450.132C490.626 457.795 496.069 463.82 504.757 470.804C510.989 471.825 518.064 471.714 523.294 467.624C530.487 462 536.891 455.265 543.36 448.828L574.729 417.422C585.08 407.099 597.018 396.52 606.438 385.423C609.797 381.466 608.629 372.731 607.85 367.727Z"/><defs><linearGradient id="gradient_13" gradientUnits="userSpaceOnUse" x1="506.72119" y1="377.75021" x2="524.22906" y2="281.63464"><stop offset="0" stop-color="#F7DE9C"/><stop offset="1" stop-color="#FCFEF9"/></linearGradient></defs><path fill="url(#gradient_13)" d="M417.346 365.776C424.856 356.879 440.916 342.264 449.641 333.369L477.779 304.769C484.338 297.987 490.733 291.052 497.657 284.572C503.158 279.425 506.567 278.981 514.049 279.249C518.129 279.404 522.488 281.084 525.618 283.773C535.695 292.431 544.649 303.081 553.939 312.568L578.586 337.601C583.1 342.138 589.535 348.247 593.615 352.997C594.663 355.056 595.572 356.252 596.986 358.098C595.312 357.372 593.94 356.009 592.066 355.093C579.846 343.458 568.188 330.23 555.788 318.937C539.088 304.09 518.931 272.496 494.556 294.525C471.931 314.972 451.074 336.5 429.56 358.031C426.588 361.006 421.658 367.174 417.346 365.776Z"/><path fill="#F8E09D" d="M593.615 352.997C597.036 356.075 599.841 359.012 603.015 362.318L601.547 363.182C598.331 362.842 594.271 357.632 592.066 355.093C593.94 356.009 595.312 357.372 596.986 358.098C595.572 356.252 594.663 355.056 593.615 352.997Z"/><path fill="#3D1109" d="M486.659 358.091C491.896 350.538 484.408 326.898 496.956 329.166C498.588 330.37 498.125 329.615 498.66 331.318L497.901 332.667C499.658 334.981 510.401 344.883 513.177 347.512C516.618 344.192 527.498 332.589 531.157 331.75C534.005 332.667 533.935 335.927 534.009 338.604C534.19 345.152 533.882 351.741 534.052 358.291C539.959 358.181 556.89 357.084 561.023 359.342C562.705 361.765 561.56 363.676 559.781 365.811C555.426 371.036 550.516 376.112 545.818 381.029L546.207 381.514C550.058 386.248 562.535 396.883 561.113 402.561L561.452 403.744C559.896 406.415 555.728 406.081 552.893 406.029C548.134 406.078 542.504 406.523 538.072 406.483C536.75 413.473 538.495 424.061 534.985 429.64C529.967 437.614 517.371 421.369 513.198 417.643C509.923 421.352 500.524 430.864 496.113 431.649C487.239 433.228 488.697 411.128 488.445 406.258C471.549 405.951 450.155 409.942 471.754 387.439C473.078 385.301 475.391 384.161 475.665 381.167C475.147 379.218 473.386 377.701 471.964 376.17C467.176 371.659 463.462 367.314 460.33 361.555C461.235 359.335 461.345 358.915 462.747 357.034L463.18 356.988L464.165 358.389L465.499 357.661L466.011 358.016C471.631 358.377 480.767 358.085 486.659 358.091Z"/><path fill="#F8E09D" d="M475.924 375.892L481.288 381.262L473.386 389.615C466.062 397.856 459.524 404.995 477.146 403.42C481.374 403.042 487.904 403.058 492.143 403.3C492.138 408.897 491.199 425.085 494.205 428.521C498.677 429.97 509.776 416.786 513.235 413.489C516.623 416.846 527.47 428.459 531.315 429.183C537.291 427.135 532.112 408.825 534.681 403.732L535.948 403.356L535.521 404.846C536.427 405.684 536.985 405.899 538.072 406.483C536.75 413.473 538.495 424.061 534.985 429.64C529.967 437.614 517.371 421.369 513.198 417.643C509.923 421.352 500.524 430.864 496.113 431.649C487.239 433.228 488.697 411.128 488.445 406.258C471.549 405.951 450.155 409.942 471.754 387.439C473.078 385.301 475.391 384.161 475.665 381.167C475.147 379.218 473.386 377.701 471.964 376.17C473.197 376.803 473.623 377.209 474.975 377.101L475.924 375.892Z"/><path fill="#F7EAB1" d="M486.659 358.091C491.896 350.538 484.408 326.898 496.956 329.166C498.588 330.37 498.125 329.615 498.66 331.318L497.901 332.667C495.566 331.83 496.663 331.824 494.513 332.302C489.458 336.348 494.159 353.824 491.444 357.85C489.473 358.093 488.653 358.117 486.659 358.091Z"/><path fill="#F8E09D" d="M460.33 361.555C461.235 359.335 461.345 358.915 462.747 357.034L463.18 356.988L464.165 358.389L465.499 357.661L466.011 358.016C465.158 359.035 463.823 360.178 464.133 361.482C465.236 366.126 472.799 372.301 475.924 375.892L474.975 377.101C473.623 377.209 473.197 376.803 471.964 376.17C467.176 371.659 463.462 367.314 460.33 361.555Z"/><path fill="#F3E3C1" d="M535.948 403.356C542.175 403.458 548.403 403.499 554.631 403.479L554.68 404.868C553.758 405.593 553.949 405.49 552.893 406.029C548.134 406.078 542.504 406.523 538.072 406.483C536.985 405.899 536.427 405.684 535.521 404.846L535.948 403.356Z"/><path fill="#F8E09D" d="M561.113 402.561L561.452 403.744C559.896 406.415 555.728 406.081 552.893 406.029C553.949 405.49 553.758 405.593 554.68 404.868L554.631 403.479C557.493 403.467 558.301 403.24 561.113 402.561Z"/><path fill="#F2544D" d="M513.466 353.519C519.023 348.458 523.663 343.399 529.592 338.396C529.637 343.881 528.97 359.107 530.38 363.224C536.755 362.82 548.674 362.827 555.048 363.256C550.366 369.589 543.234 376.139 539.581 381.225C543.503 385.646 548.329 391.188 551.885 395.915C553.169 397.324 553.549 397.828 554.605 399.422C549.021 399.564 534.932 400.209 530.107 399.493C530.014 407.684 530.004 415.875 530.077 424.065C527.084 421.214 515.619 410.324 513.627 407.623C512.102 407.848 499.062 421.246 496.79 423.241C496.705 420.05 496.515 416.81 496.824 413.645C497.012 408.986 496.971 404.216 496.985 399.546C488.942 398.904 480.865 398.92 472.797 398.838C477.171 392.564 482.466 387.177 486.817 380.642C482.807 376.439 474.972 368.641 472.098 363.953L471.818 363.372C473.215 362.752 492.964 362.976 496.316 362.797C497.139 355.772 496.99 345.4 497.049 338.157C502.844 343.19 506.887 348.609 513.466 353.519Z"/><path fill="#F7686A" d="M513.466 353.519C519.023 348.458 523.663 343.399 529.592 338.396C529.637 343.881 528.97 359.107 530.38 363.224C536.755 362.82 548.674 362.827 555.048 363.256C550.366 369.589 543.234 376.139 539.581 381.225C538.291 380.31 537.111 379.363 535.873 378.384C533.584 376.629 530.474 366.326 524.37 363.184C519.531 360.248 514.01 359.519 508.555 360.706C497.784 363.05 496.315 371.092 491.493 379.238C487.129 374.844 477.898 365.09 472.098 363.953L471.818 363.372C473.215 362.752 492.964 362.976 496.316 362.797C497.139 355.772 496.99 345.4 497.049 338.157C502.844 343.19 506.887 348.609 513.466 353.519Z"/><path fill="#CD3939" d="M530.38 363.224C536.755 362.82 548.674 362.827 555.048 363.256C550.366 369.589 543.234 376.139 539.581 381.225C538.291 380.31 537.111 379.363 535.873 378.384C540.998 372.375 545.161 368.561 551.075 363.297C545.455 363.468 535.763 363.85 530.38 363.224Z"/><path fill="#CD3939" d="M551.885 395.915C553.169 397.324 553.549 397.828 554.605 399.422C549.021 399.564 534.932 400.209 530.107 399.493C530.014 407.684 530.004 415.875 530.077 424.065C527.084 421.214 515.619 410.324 513.627 407.623C515.49 408.483 516.959 409.587 518.681 409.382L519.037 408.22C523.049 410.908 525.741 413.057 529.395 416.195C529.779 410.42 529.561 402.896 529.822 396.689C536.616 396.245 544.298 396.543 551.186 396.624L551.885 395.915Z"/><path fill="#CD3939" d="M511.927 403.032C514.457 404.531 516.971 406.123 519.037 408.22L518.681 409.382C516.959 409.587 515.49 408.483 513.627 407.623C512.102 407.848 499.062 421.246 496.79 423.241C496.705 420.05 496.515 416.81 496.824 413.645L497.765 414.094C499.41 413.715 509.366 404.982 511.927 403.032Z"/><path fill="#F5B556" d="M266.99 395.79C266.883 389.873 265.407 376.682 269.678 372.674C277.099 370.376 318.534 371.776 329.253 372.427C330.935 372.529 332.182 374.925 332.99 376.429C333.126 395.405 333.141 414.382 333.036 433.358C332.983 436.218 332.07 442.428 328.557 442.456C318.513 442.537 276.47 445.122 269.858 441.566C265.633 436.312 266.93 426.798 267.078 419.853C266.798 411.835 266.768 403.81 266.99 395.79Z"/><path fill="#E28231" d="M267.078 419.853C267.787 423.139 267.624 428.731 267.646 432.26C269.542 434.821 270.121 435.2 272.598 437.069C283.899 438.697 314.56 437.634 327.487 436.783C328.293 436.729 332.08 434.023 333.036 433.358C332.983 436.218 332.07 442.428 328.557 442.456C318.513 442.537 276.47 445.122 269.858 441.566C265.633 436.312 266.93 426.798 267.078 419.853Z"/><path fill="#FCFBF8" d="M266.99 395.79C266.883 389.873 265.407 376.682 269.678 372.674C277.099 370.376 318.534 371.776 329.253 372.427C330.935 372.529 332.182 374.925 332.99 376.429C329.511 376.575 324.098 375.511 320.04 375.448C306.404 375.237 292.693 374.962 279.069 375.603C275.37 375.759 273.064 377.204 270.57 379.763C270.356 383.428 270.236 400.583 268.967 402.122C267.538 400.376 267.375 398.041 266.99 395.79Z"/><path fill="#51A317" d="M693.127 376.549C693.591 374.801 693.679 373.557 695.019 372.409C698.727 371.44 709.964 371.615 714.215 371.576C728.861 371.321 743.511 371.409 758.154 371.84C758.157 374.546 758.266 378.57 758.066 381.145C758.177 390.873 758.166 400.603 758.031 410.33C758.679 415.534 758.874 431.024 758.615 436.541C758.554 438.29 758.51 440.15 757.319 441.409C754.381 442.448 698.82 441.682 692.021 441.645C691.838 435.795 691.782 431.171 692.007 425.313C691.993 415.615 692.565 405.59 692.528 395.473C692.613 389.335 692.587 382.605 693.127 376.549Z"/><path fill="#388913" d="M692.007 425.313C694.235 427.054 699.823 431.644 702.151 432.554C714.016 437.187 749.049 431.441 758.615 436.541C758.554 438.29 758.51 440.15 757.319 441.409C754.381 442.448 698.82 441.682 692.021 441.645C691.838 435.795 691.782 431.171 692.007 425.313Z"/><path fill="#FCFBF8" d="M693.127 376.549C693.591 374.801 693.679 373.557 695.019 372.409C698.727 371.44 709.964 371.615 714.215 371.576C728.861 371.321 743.511 371.409 758.154 371.84C758.157 374.546 758.266 378.57 758.066 381.145C756.904 381.522 756.344 382.248 755.757 382.427C754.753 377.454 752.196 375.865 747.111 375.849C738.095 375.82 701.159 372.616 695.029 377.415L694.233 377.619L693.127 376.549Z"/><path fill="#AFD687" d="M755.757 382.427C756.344 382.248 756.904 381.522 758.066 381.145C758.177 390.873 758.166 400.603 758.031 410.33C757.464 410.279 757.87 410.347 756.914 409.805C755.64 405.882 755.581 387.472 755.757 382.427Z"/><path fill="#AFD687" d="M692.528 395.473C692.613 389.335 692.587 382.605 693.127 376.549L694.233 377.619L695.029 377.415C695.402 380.737 695.427 392.024 694.255 394.826C693.379 395.252 693.453 395.321 692.528 395.473Z"/><path fill="#FDD968" d="M622.758 300.546C630.492 297.022 663.476 299.803 674.148 298.917C684.785 298.034 688.032 298.179 688.072 308.485C688.717 325.725 687.96 342.767 687.996 360.015L687.984 367.663C666.714 367.715 643.712 368.228 622.608 367.76C622.367 361.328 622.453 354.558 622.446 348.09C621.882 337.493 621.489 310.49 622.758 300.546Z"/><path fill="#F5B556" d="M622.446 348.09C630.214 355.871 629.849 361.054 644.179 360.585C658.302 360.122 673.967 361.51 687.996 360.015L687.984 367.663C666.714 367.715 643.712 368.228 622.608 367.76C622.367 361.328 622.453 354.558 622.446 348.09Z"/><path fill="#FCFBF8" d="M622.758 300.546C630.492 297.022 663.476 299.803 674.148 298.917C684.785 298.034 688.032 298.179 688.072 308.485C683.559 308.3 684.6 305.136 682.902 304.987C667.554 303.643 651.693 304.716 636.237 304.515C633.762 304.483 625.912 305.339 624.091 304.662C623.43 303.071 623.204 302.223 622.758 300.546Z"/><path fill="#51A317" d="M693.348 299.976C698.042 297.357 725.804 298.656 732.886 298.486C758.81 297.864 759.233 314.392 758.422 333.733C758.438 336.751 758.509 339.992 758.412 342.992C758.444 349.12 758.312 356.239 758.567 362.275C758.011 365.207 756.265 367.467 753.147 367.719C746.14 368.287 739.043 368.012 732.006 367.998L691.855 367.924C691.629 360.987 692.091 352.403 692.136 345.219C691.982 337.296 691.623 326.566 692.388 318.759C692.464 313.734 692.586 304.867 693.348 299.976Z"/><path fill="#388913" d="M692.136 345.219C692.291 346.279 692.459 347.335 692.597 348.397C693.018 351.644 694.981 354.389 697.512 356.405C709.696 366.111 747.588 355.554 758.567 362.275C758.011 365.207 756.265 367.467 753.147 367.719C746.14 368.287 739.043 368.012 732.006 367.998L691.855 367.924C691.629 360.987 692.091 352.403 692.136 345.219Z"/><defs><linearGradient id="gradient_14" gradientUnits="userSpaceOnUse" x1="723.67932" y1="334.24557" x2="729.49829" y2="297.89877"><stop offset="0" stop-color="#C0D2AF"/><stop offset="1" stop-color="#FEFCEF"/></linearGradient></defs><path fill="url(#gradient_14)" d="M693.348 299.976C698.042 297.357 725.804 298.656 732.886 298.486C758.81 297.864 759.233 314.392 758.422 333.733C758.075 336.53 758.122 337.582 756.929 340.133L756.455 339.773C755.614 334.373 756.396 329.081 755.591 323.733C755.371 300.543 733.71 303.162 717.22 303.542C711.044 303.685 698.517 301.182 695.405 307.137L694.949 308.007L694.253 308.183C693.529 307.232 693.529 301.949 693.348 299.976Z"/><path fill="#AFD687" d="M693.348 299.976C693.529 301.949 693.529 307.232 694.253 308.183L694.949 308.007L695.405 307.137C695.648 315.332 695.639 324.977 694.052 332.998L693.433 333.591L693.941 333.36L693.511 333.871C691.898 330.013 692.281 323.076 692.388 318.759C692.464 313.734 692.586 304.867 693.348 299.976Z"/><path fill="#AFD687" d="M755.591 323.733C756.396 329.081 755.614 334.373 756.455 339.773L756.929 340.133C758.122 337.582 758.075 336.53 758.422 333.733C758.438 336.751 758.509 339.992 758.412 342.992C757.944 347.395 758.534 349.595 756.941 354.126L756.469 353.875L757.044 353.628L756.286 353.211L757.162 353.163L757.218 352.908L756.151 352.429C755.278 346.304 755.404 330.285 755.591 323.733Z"/><path fill="#FDD968" d="M338.049 299.325C346.364 298.436 359.518 299.156 368.286 298.926C377.542 298.683 388.202 298.878 397.491 299.145C400.135 299.222 401.131 299.627 402.605 301.434C403.376 305.497 403.029 313.138 402.896 317.457C402.411 332.073 402.598 346.623 403.073 361.228C403.141 363.326 401.866 367.722 399.414 367.7C381.117 367.536 360.079 369.012 341.996 367.692C340.11 365.827 339.485 365.252 338.073 363.039C337.146 347.486 337.272 325.915 337.874 310.139L338.049 299.325Z"/><path fill="#FCFBF8" d="M338.049 299.325C346.364 298.436 359.518 299.156 368.286 298.926C377.542 298.683 388.202 298.878 397.491 299.145C400.135 299.222 401.131 299.627 402.605 301.434C402.472 303.402 402.693 304.343 401.767 305.889C398.126 305.214 394.429 304.546 390.732 304.29C382.916 303.751 347.292 302.965 342.485 306.522C341.444 307.292 340.676 308.429 339.923 309.466L337.874 310.139L338.049 299.325Z"/><path fill="#1A9AE4" d="M624.73 375.561C624.373 373.511 624.04 373.49 624.63 371.8C627.844 371.307 641.409 371.654 645.798 371.639C655.012 371.581 664.226 371.574 673.439 371.619C676.68 371.639 683.911 371.519 686.771 371.972C687.854 373.115 687.47 372.413 687.546 374.339C688.289 380.532 687.961 392.974 687.942 399.47C687.268 408.669 687.46 416.751 687.588 425.967C688.069 430.083 687.775 436.809 687.699 441.126L622.117 441.189C621.971 436.146 621.938 431.099 622.015 426.054C622.019 422.468 621.805 409.214 622.352 406.212C624.226 395.937 628.647 386.854 624.73 375.561Z"/><path fill="#556A95" d="M622.015 426.054C627.519 426.624 629.608 433.808 636.485 434.46C653.194 436.043 670.765 434.319 687.451 435.327C687.462 432.703 687.369 428.436 687.588 425.967C688.069 430.083 687.775 436.809 687.699 441.126L622.117 441.189C621.971 436.146 621.938 431.099 622.015 426.054Z"/><path fill="#FCFBF8" d="M624.73 375.561C624.373 373.511 624.04 373.49 624.63 371.8C627.844 371.307 641.409 371.654 645.798 371.639C655.012 371.581 664.226 371.574 673.439 371.619C676.68 371.639 683.911 371.519 686.771 371.972C687.854 373.115 687.47 372.413 687.546 374.339C687.246 377.908 688.043 381.763 686.028 383.794L684.535 384.205C684.025 380.575 683.896 379.452 682.666 375.962C665.827 374.404 642.489 376.325 624.73 375.561Z"/><path fill="#CADCE5" d="M687.546 374.339C688.289 380.532 687.961 392.974 687.942 399.47L687.311 401.222L686.873 401.408C685.147 399.034 684.557 387.59 684.535 384.205L686.028 383.794C688.043 381.763 687.246 377.908 687.546 374.339Z"/><path fill="#F2544D" d="M266.899 322.442C266.964 321.156 267.079 319.873 267.243 318.595C269.899 297.574 287.98 298.763 304.086 299.037C312.69 299.184 321.433 298.776 329.986 299.855C331.421 300.036 331.913 301.323 332.651 302.401C333.246 306.731 333.236 315.34 333.317 319.994C333.493 333.112 333.445 346.233 333.172 359.35C333.008 363.775 330.925 368.084 326.175 367.79C316.513 367.193 274.541 370.12 268.888 365.388C265.377 358.717 265.921 331.052 266.875 322.886L266.899 322.442Z"/><path fill="#CD3939" d="M266.899 322.442L268.583 321.856C269.913 322.654 269.385 322.13 270.163 323.543C270.146 329.029 271.272 355.612 268.203 358.033C268.608 359.988 269.876 360.836 271.566 362.275C280.102 364.093 315.335 362.861 325.688 362.343C327.606 362.247 331.118 359.901 333.172 359.35C333.008 363.775 330.925 368.084 326.175 367.79C316.513 367.193 274.541 370.12 268.888 365.388C265.377 358.717 265.921 331.052 266.875 322.886L266.899 322.442Z"/><path fill="#F2BFB6" d="M266.899 322.442L268.583 321.856C269.913 322.654 269.385 322.13 270.163 323.543C270.146 329.029 271.272 355.612 268.203 358.033C266.034 353.623 266.833 329.336 266.875 322.886L266.899 322.442Z"/><defs><linearGradient id="gradient_15" gradientUnits="userSpaceOnUse" x1="298.89893" y1="323.24466" x2="301.2251" y2="297.90442"><stop offset="0" stop-color="#ECD5CD"/><stop offset="1" stop-color="#F9F7F6"/></linearGradient></defs><path fill="url(#gradient_15)" d="M266.899 322.442C266.964 321.156 267.079 319.873 267.243 318.595C269.899 297.574 287.98 298.763 304.086 299.037C312.69 299.184 321.433 298.776 329.986 299.855C331.421 300.036 331.913 301.323 332.651 302.401C332.621 304.101 332.727 306.964 332.185 308.451C331.685 307.999 328.278 304.879 327.833 304.808C319.292 303.452 310.025 304.719 301.392 304.272C286.183 303.485 272.142 304.646 270.163 323.543C269.385 322.13 269.913 322.654 268.583 321.856L266.899 322.442Z"/><path fill="#51A317" d="M338.065 406.434C337.969 397.538 336.964 382.723 339.291 374.648C340.641 369.962 372.765 372.321 377.947 371.877C380.974 371.617 397.988 371.762 399.203 372.29C399.626 373.973 399.445 373.529 398.68 375.504C393.311 389.842 400.262 395.36 402.563 406.894C403.876 413.479 403.502 432.811 402.838 439.446C402.383 440.336 401.941 441.126 401.446 441.995C399.184 443.102 345.11 442.82 340.98 441.962C338.921 440.371 338.808 438.361 338.456 435.843L338.56 435.384C337.58 431.544 338.006 411.455 338.065 406.434Z"/><path fill="#388913" d="M338.456 435.843C340.242 436.024 341.096 436.256 342.813 436.752C346.926 437.94 352.091 437.542 356.388 437.524L382.505 437.333C388.411 437.292 397.915 436.368 402.838 439.446C402.383 440.336 401.941 441.126 401.446 441.995C399.184 443.102 345.11 442.82 340.98 441.962C338.921 440.371 338.808 438.361 338.456 435.843Z"/><path fill="#EFF5E2" d="M338.065 406.434C337.969 397.538 336.964 382.723 339.291 374.648C340.641 369.962 372.765 372.321 377.947 371.877C380.974 371.617 397.988 371.762 399.203 372.29C399.626 373.973 399.445 373.529 398.68 375.504C384.447 374.863 370.157 375.196 355.912 375.082C352.478 375.055 349.075 375.246 345.666 375.668C344.513 376.743 343.073 378.016 342.044 379.157C339.978 387.315 340.099 405.211 339.977 414.237C339.714 414.958 339.443 415.676 339.164 416.391C338.571 415.23 338.3 408.524 338.065 406.434Z"/><path fill="#AFD687" d="M338.065 406.434C338.3 408.524 338.571 415.23 339.164 416.391C339.443 415.676 339.714 414.958 339.977 414.237C339.987 417.892 340.361 433.066 338.56 435.384C337.58 431.544 338.006 411.455 338.065 406.434Z"/><path fill="#F2544D" d="M266.05 660.37C266.403 658.627 266.196 657.772 267.263 657.039C272.188 656.943 306.098 656.368 307.959 657.474C308.161 658.752 308.252 659.189 308.238 660.47C307.071 681.358 307.098 701.904 334.012 703.969L333.977 724.895L333.742 734.496C321.778 734.267 309.478 734.573 297.295 734.643C284.945 735.828 269.732 731.753 267.318 717.079C264.521 700.08 266.024 677.921 266.05 660.37Z"/><path fill="#CD3939" d="M333.742 734.496C321.778 734.267 309.478 734.573 297.295 734.643C284.945 735.828 269.732 731.753 267.318 717.079C264.521 700.08 266.024 677.921 266.05 660.37L270.364 660.467C270.2 670.662 270.187 680.858 270.326 691.053C270.422 704.042 268.463 720.679 284.998 724.406C290.193 725.577 298.048 725.128 303.471 725.127C312.814 725.141 322.156 725.091 331.498 724.977C332.352 724.964 333.127 724.943 333.977 724.895L333.742 734.496Z"/><path fill="#F2BFB6" d="M266.05 660.37C266.403 658.627 266.196 657.772 267.263 657.039C272.188 656.943 306.098 656.368 307.959 657.474C308.161 658.752 308.252 659.189 308.238 660.47C295.802 660.679 282.541 659.97 270.364 660.467L266.05 660.37Z"/><path fill="#CD3939" d="M750.229 665.51C752.295 664.961 756.076 664.058 758.003 665.075C760.245 668.666 757.406 669.278 758.008 672.045C759.836 674.243 758.922 704.736 758.729 710.053C758.155 725.916 746.004 734.891 730.64 734.572C717.019 734.289 702.801 735.065 689.039 734.318C689.037 731.067 688.927 727.161 689.293 723.994C689.607 718.216 689.412 710.412 689.439 704.479C691.15 704.414 692.86 704.321 694.568 704.198C713.665 702.721 718.688 686.64 717.276 670.365C716.668 668.952 716.241 667.032 715.836 665.497C727.035 665.755 738.917 665.431 750.229 665.51Z"/><path fill="#7B1A0F" d="M754.233 670.354C755.341 670.88 756.886 671.689 758.008 672.045C759.836 674.243 758.922 704.736 758.729 710.053C758.155 725.916 746.004 734.891 730.64 734.572C717.019 734.289 702.801 735.065 689.039 734.318C689.037 731.067 688.927 727.161 689.293 723.994C703.706 724.05 722.077 724.768 736.361 723.333C740.118 722.543 745.609 720.032 748.206 717.147C756.851 707.544 754.001 683.61 754.11 670.95L754.233 670.354Z"/><path fill="#F2BFB6" d="M750.229 665.51C752.295 664.961 756.076 664.058 758.003 665.075C760.245 668.666 757.406 669.278 758.008 672.045C756.886 671.689 755.341 670.88 754.233 670.354L754.11 670.95C745.66 670.019 726.788 670.448 717.276 670.365C716.668 668.952 716.241 667.032 715.836 665.497C727.035 665.755 738.917 665.431 750.229 665.51Z"/><path fill="#423A4C" d="M750.229 665.51C752.295 664.961 756.076 664.058 758.003 665.075C760.245 668.666 757.406 669.278 758.008 672.045C756.886 671.689 755.341 670.88 754.233 670.354C753.249 668.321 751.858 666.999 750.229 665.51Z"/><path fill="#F2544D" d="M408.867 449.787C409.306 448.518 409.48 447.165 410.923 446.897C419.472 445.31 433.927 445.971 442.516 446.044L445.41 449.856C451.095 454.588 458.797 463.316 464.443 468.667C467.444 471.512 476.407 480.068 478.311 482.534C478.975 486.624 479.4 489.84 479.762 493.962L473.038 507.468L469.97 512.978C464.962 512.305 457.863 512.524 452.699 512.536C443.566 512.604 434.433 512.577 425.3 512.455C425.482 510.891 425.923 508.951 426.239 507.367C428.456 490.695 424.466 483.226 408.468 477.257C408.805 468.722 409.392 458.305 408.867 449.787Z"/><path fill="#CD3939" d="M426.239 507.367C441.686 507.782 457.549 507.365 473.038 507.468L469.97 512.978C464.962 512.305 457.863 512.524 452.699 512.536C443.566 512.604 434.433 512.577 425.3 512.455C425.482 510.891 425.923 508.951 426.239 507.367Z"/><path fill="#FCFBF8" d="M408.867 449.787C409.306 448.518 409.48 447.165 410.923 446.897C419.472 445.31 433.927 445.971 442.516 446.044L445.41 449.856C442.634 450.191 434.506 450.024 431.308 449.989C424.055 449.91 416.06 450.129 408.867 449.787Z"/><path fill="#51A317" d="M579.661 448.411C580.103 447.835 581.729 445.734 582.36 445.708C594.005 445.228 606.34 445.157 617.966 445.577C617.966 455.5 618.537 467.864 617.989 477.502L612.493 478.471C604.415 480.74 596.232 482.82 589.028 487.354C569.161 499.857 558.765 525.151 565.275 547.902C567.292 554.953 570.941 559.774 575.138 565.678C571.953 568.422 570.012 569.614 566.401 571.865C562.097 547.034 557.984 522.163 553.74 497.316C553.107 493.609 548.219 483.037 548.625 480.613C550.899 476.921 562.815 465.47 566.651 461.665C569.403 458.744 572.224 455.641 575.173 452.946C576.821 451.068 577.716 450.029 579.661 448.411Z"/><path fill="#388913" d="M555.702 475.741C564.869 476.345 607.077 474.888 612.31 477.972L612.493 478.471C604.415 480.74 596.232 482.82 589.028 487.354C569.161 499.857 558.765 525.151 565.275 547.902C567.292 554.953 570.941 559.774 575.138 565.678C571.953 568.422 570.012 569.614 566.401 571.865C562.097 547.034 557.984 522.163 553.74 497.316C553.107 493.609 548.219 483.037 548.625 480.613L548.992 481.041L549.722 481.052C551.968 479.653 553.802 477.62 555.702 475.741Z"/><path fill="#EFF5E2" d="M579.661 448.411C580.103 447.835 581.729 445.734 582.36 445.708C594.005 445.228 606.34 445.157 617.966 445.577C617.593 447.509 617.896 447.931 616.728 448.862C611.858 449.127 582.127 449.727 579.661 448.411Z"/><path fill="#AFD687" d="M566.651 461.665L568.846 461.672C564.514 466.407 560.132 471.097 555.702 475.741C553.802 477.62 551.968 479.653 549.722 481.052L548.992 481.041L548.625 480.613C550.899 476.921 562.815 465.47 566.651 461.665Z"/><path fill="#79BA4C" d="M575.173 452.946C576.947 452.316 577.343 451.952 578.778 450.712L579.233 450.65C577.068 453.008 571.038 460.34 568.846 461.672L566.651 461.665C569.403 458.744 572.224 455.641 575.173 452.946Z"/><path fill="#1A9AE4" d="M622.351 449.892C622.452 447.93 622.195 447.115 623.143 445.634C628.396 444.788 648.208 445.092 654.433 445.185C663.476 445.321 678.996 444.632 687.57 445.291C687.726 452.559 687.803 460.353 687.428 467.62L687.518 478.894C681.527 479.644 676.914 480.396 672.045 484.506C671.058 485.679 670.014 487.094 669.065 488.323C654.177 481.211 638.657 478.662 622.337 477.934C622.177 475.798 622.114 473.569 622.019 471.421C621.979 465.197 621.728 455.857 622.351 449.892Z"/><path fill="#FCFBF8" d="M622.351 449.892C622.452 447.93 622.195 447.115 623.143 445.634C628.396 444.788 648.208 445.092 654.433 445.185C663.476 445.321 678.996 444.632 687.57 445.291C687.726 452.559 687.803 460.353 687.428 467.62C683.794 464.058 685.532 455.54 682.483 452.356C678.526 448.224 664.682 449.399 659.33 449.427C648.172 449.471 637.014 449.622 625.858 449.882L622.351 449.892Z"/><defs><linearGradient id="gradient_16" gradientUnits="userSpaceOnUse" x1="646.63593" y1="475.56021" x2="643.92474" y2="483.75632"><stop offset="0" stop-color="#23B17B"/><stop offset="1" stop-color="#30A68D"/></linearGradient></defs><path fill="url(#gradient_16)" d="M622.019 471.421C625.104 472.222 628.596 472.693 631.781 472.459C648.43 473.398 657.861 479.331 672.045 484.506C671.058 485.679 670.014 487.094 669.065 488.323C654.177 481.211 638.657 478.662 622.337 477.934C622.177 475.798 622.114 473.569 622.019 471.421Z"/><path fill="#409ED3" d="M622.351 449.892L625.858 449.882C624.587 452.673 625.244 466.752 625.853 470.215C627.27 472.129 629.27 472.068 631.781 472.459C628.596 472.693 625.104 472.222 622.019 471.421C621.979 465.197 621.728 455.857 622.351 449.892Z"/><path fill="#F5B556" d="M692.296 445.302C697.242 444.751 703.234 444.869 708.23 444.915C725.217 445.074 742.071 445.52 759.065 445.395C759.02 448.837 758.956 452.279 758.873 455.72C758.916 463.698 759.147 472.529 758.924 480.439C737.138 479.255 714.11 480.348 692.224 479.804C692.182 475.335 692.07 470.678 692.167 466.226L692.08 463.07C692.028 457.043 691.924 451.327 692.296 445.302Z"/><path fill="#E28231" d="M758.52 474.056C758.379 469.429 758.002 459.814 758.873 455.72C758.916 463.698 759.147 472.529 758.924 480.439C737.138 479.255 714.11 480.348 692.224 479.804C692.182 475.335 692.07 470.678 692.167 466.226C692.609 468.094 692.583 471.467 692.641 473.501L734.006 473.502C740.527 473.505 752.351 473.189 758.52 474.056Z"/><defs><linearGradient id="gradient_17" gradientUnits="userSpaceOnUse" x1="724.65009" y1="461.26669" x2="725.31445" y2="445.19049"><stop offset="0" stop-color="#FFE0B3"/><stop offset="1" stop-color="#F6F9EF"/></linearGradient></defs><path fill="url(#gradient_17)" d="M692.296 445.302C697.242 444.751 703.234 444.869 708.23 444.915C725.217 445.074 742.071 445.52 759.065 445.395L758.524 447.994C757.016 448.897 704.314 448.504 696.101 449.33C695.905 453.137 696.045 460.258 694.052 463.096L693.011 463.527L692.08 463.07C692.028 457.043 691.924 451.327 692.296 445.302Z"/><defs><linearGradient id="gradient_18" gradientUnits="userSpaceOnUse" x1="370.84866" y1="494.33539" x2="373.18106" y2="450.08636"><stop offset="0" stop-color="#E99643"/><stop offset="1" stop-color="#FAC561"/></linearGradient></defs><path fill="url(#gradient_18)" d="M338.592 480.577C336.913 475.668 337.494 459.231 338.051 453.579C338.2 452.066 338.603 448.516 339.987 447.629C343.416 445.434 394.921 445.494 400.932 446.549C402.696 447.687 402.954 448.56 404.031 450.463C403.518 459.496 403.572 467.504 403.884 476.54C383.066 475.809 360.063 469.799 356.06 496.301C352.83 491.644 344.144 481.62 338.592 480.577Z"/><path fill="#FCFBF8" d="M338.592 480.577C336.913 475.668 337.494 459.231 338.051 453.579C338.2 452.066 338.603 448.516 339.987 447.629C343.416 445.434 394.921 445.494 400.932 446.549C402.696 447.687 402.954 448.56 404.031 450.463C400.353 452.366 353.992 448.413 346.292 451.142C336.918 454.464 343.992 475.801 339.802 480.096L338.592 480.577Z"/><path fill="#CD3939" d="M339.462 703.664C342.533 703.617 355.432 701.862 356.763 702.092C372.469 704.812 389.436 703.871 405.211 704.03C405.141 710.711 404.858 718.672 405.091 725.255L405.022 735.016C399.766 734.385 392.227 734.578 386.821 734.61L356.093 734.908C352.247 734.911 344.213 735.122 340.992 734.413L340.105 734.257C338.708 732.318 339.371 726.554 339.482 723.898L339.462 703.664Z"/><path fill="#7B1A0F" d="M339.482 723.898C340.363 725.209 339.901 724.875 341.161 725.593C348.923 724.682 367.581 725.535 376.174 725.459C383.927 725.39 397.966 724.78 405.091 725.255L405.022 735.016C399.766 734.385 392.227 734.578 386.821 734.61L356.093 734.908C352.247 734.911 344.213 735.122 340.992 734.413L340.105 734.257C338.708 732.318 339.371 726.554 339.482 723.898Z"/><path fill="#A74450" d="M339.482 723.898C340.363 725.209 339.901 724.875 341.161 725.593C341.569 728.332 341.764 731.718 340.992 734.413L340.105 734.257C338.708 732.318 339.371 726.554 339.482 723.898Z"/><path fill="#51A317" d="M550.011 704.529C565.146 703.487 581.055 704.297 596.275 704.149C602.424 704.089 608.838 704.46 614.946 704.012C614.945 708.328 615.116 714.004 614.892 718.207C614.947 723.905 614.719 728.807 614.416 734.487C611.077 734.73 608.017 734.597 604.714 734.661C587.71 734.994 570.258 734.163 553.296 734.743C551.35 734.526 551.58 734.863 550.377 733.804C549.378 730.577 549.885 727.456 550.009 723.953L550.011 704.529Z"/><path fill="#388913" d="M614.248 724.403C614.307 721.769 614.287 720.743 614.892 718.207C614.947 723.905 614.719 728.807 614.416 734.487C611.077 734.73 608.017 734.597 604.714 734.661C587.71 734.994 570.258 734.163 553.296 734.743C551.35 734.526 551.58 734.863 550.377 733.804C549.378 730.577 549.885 727.456 550.009 723.953L551.795 724.558C571.212 723.826 594.386 724.559 614.248 724.403Z"/><path fill="#1A9AE4" d="M480.486 704.031C500.818 703.91 525.702 703.537 545.901 704.431C545.885 710.767 545.999 717.768 545.742 724.039C545.519 727.08 545.665 731.159 545.694 734.285L480.529 734.409C480.657 729.432 480.741 724.88 480.615 719.883C480.476 714.6 480.433 709.315 480.486 704.031Z"/><path fill="#556A95" d="M480.615 719.883C480.842 721.446 480.754 722.798 481.576 723.859C486.464 724.559 491.878 724.383 496.847 724.257C513.103 723.842 529.506 724.647 545.742 724.039C545.519 727.08 545.665 731.159 545.694 734.285L480.529 734.409C480.657 729.432 480.741 724.88 480.615 719.883Z"/><path fill="#F5B556" d="M410.603 704.039L475.107 704.04C475.87 711.489 475.422 726.351 475.577 734.496L430.838 734.553C427.939 734.557 413.942 734.391 412.132 734.744C409.516 731.832 410.468 723.474 410.61 719.199C410.366 714.7 410.577 708.65 410.603 704.039Z"/><path fill="#E28231" d="M475.107 704.04C475.87 711.489 475.422 726.351 475.577 734.496L430.838 734.553C427.939 734.557 413.942 734.391 412.132 734.744C409.516 731.832 410.468 723.474 410.61 719.199C410.947 720.791 411.14 721.835 411.328 723.449C412.221 724.348 411.872 724.088 413.049 724.696C418.233 725.353 429.462 725.044 435.174 725.033L474.973 725.031C474.868 718.513 474.803 710.468 475.107 704.04Z"/><path fill="#FDD968" d="M410.61 719.199C410.947 720.791 411.14 721.835 411.328 723.449C412.221 724.348 411.872 724.088 413.049 724.696C413.381 728.56 414.288 731.792 412.132 734.744C409.516 731.832 410.468 723.474 410.61 719.199Z"/><path fill="#1A9AE4" d="M619.802 706.781L620.169 704.505C622.616 703.293 677.162 703.896 683.957 704.134L683.967 724.509L684.044 734.32C670.742 734.625 657.074 734.381 643.728 734.37C636.134 734.365 627.014 734.722 619.562 734.46C619.472 729.983 619.56 726.367 619.788 721.89C620.06 717.456 620.063 711.126 619.802 706.781Z"/><path fill="#556A95" d="M619.788 721.89L620.413 723.988C623.853 724.817 640.321 724.434 645.217 724.407C658.134 724.287 671.051 724.321 683.967 724.509L684.044 734.32C670.742 734.625 657.074 734.381 643.728 734.37C636.134 734.365 627.014 734.722 619.562 734.46C619.472 729.983 619.56 726.367 619.788 721.89Z"/><path fill="#51A317" d="M267.186 454.757C267.8 451.127 267.803 446.976 272.385 446.88C291.065 446.487 309.855 446.691 328.534 447.1C332.229 447.181 332.393 451.836 332.486 454.439C333.15 462.296 333.084 469.236 332.941 477.128C321.442 476.431 309.923 476.124 298.403 476.209C288.815 476.276 277.276 476.813 267.897 475.995C266.952 471.006 266.878 459.653 267.186 454.757Z"/><path fill="#FCFBF8" d="M267.186 454.757C267.8 451.127 267.803 446.976 272.385 446.88C291.065 446.487 309.855 446.691 328.534 447.1C332.229 447.181 332.393 451.836 332.486 454.439C330.577 453.779 329.562 452.437 327.886 451.209C321.261 449.91 279.945 449.378 272.059 451.908C271.123 452.208 269.837 454.932 269.402 456.113C268.648 455.828 267.881 455.226 267.186 454.757Z"/><path fill="#79BA4C" d="M267.897 475.995C266.952 471.006 266.878 459.653 267.186 454.757C267.881 455.226 268.648 455.828 269.402 456.113C270.265 460.091 270.429 471.079 269.124 474.913L267.897 475.995Z"/><path fill="#E28231" d="M556.374 299.089L593.436 299.075C600.1 299.086 607.861 298.984 614.534 299.758C616.01 299.93 616.41 300.806 617.128 301.818C618.298 308.776 618.952 340.191 617.627 347.342C617.632 352.005 617.557 356.667 617.404 361.327L613.107 356.767C596.132 340.14 578.071 321.224 561.541 304.054C559.84 302.57 558.011 300.687 556.374 299.089Z"/><defs><linearGradient id="gradient_19" gradientUnits="userSpaceOnUse" x1="588.47491" y1="321.11523" x2="587.08496" y2="298.28979"><stop offset="0" stop-color="#EACFBB"/><stop offset="1" stop-color="#FCFCF6"/></linearGradient></defs><path fill="url(#gradient_19)" d="M556.374 299.089L593.436 299.075C600.1 299.086 607.861 298.984 614.534 299.758C616.01 299.93 616.41 300.806 617.128 301.818C617.117 307.814 616.96 315.305 615.856 321.159L615.883 320.057C615.478 321.545 614.905 324.656 614.53 325.711C614.536 320.452 615.18 310.944 613.036 306.675C609.311 303.189 600.32 304.682 595.361 304.456C584.685 303.968 572.805 305.244 562.235 304.131L561.541 304.054C559.84 302.57 558.011 300.687 556.374 299.089Z"/><path fill="#EAB38A" d="M617.128 301.818C618.298 308.776 618.952 340.191 617.627 347.342C617.017 349.351 616.994 349.805 615.762 351.432L615.071 351.464C614.078 349.612 614.205 347.649 614.083 345.492C614.558 339.186 614.035 332.22 614.53 325.711C614.905 324.656 615.478 321.545 615.883 320.057L615.856 321.159C616.96 315.305 617.117 307.814 617.128 301.818Z"/><path fill="#F5B556" d="M614.083 345.492C614.205 347.649 614.078 349.612 615.071 351.464L615.762 351.432C616.994 349.805 617.017 349.351 617.627 347.342C617.632 352.005 617.557 356.667 617.404 361.327L613.107 356.767C614.419 353.349 613.851 349.507 614.083 345.492Z"/><path fill="#E28231" d="M407.606 319.348C407.655 315.004 407.429 304.363 409.436 300.84C414.169 298.292 459.439 298.903 467.44 299.197C465.92 301.177 464.472 302.579 462.734 304.35C444.684 322.781 426.471 341.051 408.097 359.158C407.525 346.633 407.176 331.941 407.606 319.348Z"/><path fill="#FCFBF8" d="M407.606 319.348C407.655 315.004 407.429 304.363 409.436 300.84C414.169 298.292 459.439 298.903 467.44 299.197C465.92 301.177 464.472 302.579 462.734 304.35L433.443 304.266C430.237 304.266 414.284 303.621 412.999 306.324C407.388 318.126 412.381 336.319 408.47 348.234C407.588 338.649 408.447 328.056 407.606 319.348Z"/><path fill="#51A317" d="M423.691 520.513C424.022 518.371 423.702 518.004 424.883 516.659C427.832 516.224 431.028 516.205 434.02 516.247C445.499 516.41 457.093 516.209 468.558 516.678L466.343 520.996C459.455 534.475 451.975 549.248 443.895 562.013C435.82 562.562 425.65 562.139 417.458 561.825C417.472 556.619 422.182 525.973 423.691 520.513Z"/><path fill="#FCFBF8" d="M423.691 520.513C424.022 518.371 423.702 518.004 424.883 516.659C427.832 516.224 431.028 516.205 434.02 516.247C445.499 516.41 457.093 516.209 468.558 516.678L466.343 520.996C454.906 520.557 443.56 520.975 432.124 520.926C429.365 520.914 426.398 520.963 423.691 520.513Z"/><path fill="#FCFBF8" d="M517.553 644.19L524.206 644.048C527.568 648.938 531.437 654.819 535.014 659.488C536.44 657.595 537.826 655.45 539.322 653.654C543.477 648.664 544.115 643.063 551.729 644.9C552.604 646.549 552.555 677.726 551.662 680.119C550.987 681.767 551.468 683.084 549.621 683.994C546.129 685.713 545.214 682.914 544.41 680.3C544.564 673.177 544.586 666.053 544.476 658.93C541.376 663.222 538.035 668.887 534.571 672.54C531.236 668.279 528.787 663.966 525.094 659.547C525.621 665.288 525.456 674.172 525.475 680.099L525.53 682.027C525.24 682.908 525.269 683.656 524.507 684.075C522.738 685.046 519.723 685.495 518.111 683.99L518.003 682.461L517.851 680.114C516.986 673.891 517.522 651.532 517.553 644.19Z"/><path fill="#423A4C" d="M544.41 680.3C546.763 680.244 549.333 680.239 551.662 680.119C550.987 681.767 551.468 683.084 549.621 683.994C546.129 685.713 545.214 682.914 544.41 680.3Z"/><path fill="#6C6A67" d="M518.003 682.461C520.106 681.775 523.251 681.992 525.53 682.027C525.24 682.908 525.269 683.656 524.507 684.075C522.738 685.046 519.723 685.495 518.111 683.99L518.003 682.461Z"/><path fill="#423A4C" d="M525.475 680.099L525.53 682.027C523.251 681.992 520.106 681.775 518.003 682.461L517.851 680.114L525.475 680.099Z"/><path fill="#FCFBF8" d="M671.164 644.456C680.662 643.835 696.711 642.196 697.149 656.05C697.315 661.309 694.842 664.034 691.406 667.466C693.265 671.236 696.552 675.594 698.842 679.97L699.457 681.022C698.098 685.15 691.777 685.391 690.473 680.669C689.143 677.855 684.257 669.421 680.959 669.819C678.668 672.301 679.403 676.44 679.518 679.918C679.588 682.409 679.936 681.941 678.883 683.816C675.202 685.589 673.086 683.152 671.6 679.987C670.861 671.551 671.172 653.441 671.164 644.456Z"/><path fill="#514F4F" d="M671.6 679.987C674.196 680.075 676.912 679.97 679.518 679.918C679.588 682.409 679.936 681.941 678.883 683.816C675.202 685.589 673.086 683.152 671.6 679.987Z"/><path fill="#514F4F" d="M698.842 679.97L699.457 681.022C698.098 685.15 691.777 685.391 690.473 680.669C693.36 680.597 696.062 680.695 698.842 679.97Z"/><path fill="#252C37" d="M679.076 651.085C686.388 650.935 691.949 652.56 688.078 661.237C685.199 662.378 682.281 662.269 679.239 662.298C678.977 658.532 679.05 654.855 679.076 651.085Z"/><path fill="#FCFBF8" d="M569.733 644.022L576.378 644.018C580.459 653.813 584.319 665.216 588.225 675.287C589.074 677.246 589.678 678.059 589.212 680.125C589.364 681.814 589.324 681.698 590.28 683.099C585.299 684.503 584.008 684.329 581.635 679.904C581.278 679.086 580.916 677.547 580.664 676.63C578.61 676.88 579.469 676.781 578.05 677.342C574.651 678.685 569.436 678.567 565.845 678.533C564.447 679.8 563.315 680.654 562.327 682.269L562.193 682.555C560.459 684.552 558.326 684.621 555.998 683.466C555.374 682.12 555.037 681.022 555.152 679.549C556.746 674.655 559.387 669.194 561.432 664.382C564.245 657.614 567.011 650.827 569.733 644.022Z"/><path fill="#514F4F" d="M564.866 674.036C568.704 673.947 577.996 673.145 580.494 675.001L580.664 676.63C578.61 676.88 579.469 676.781 578.05 677.342C574.651 678.685 569.436 678.567 565.845 678.533C564.447 679.8 563.315 680.654 562.327 682.269L562.465 680.024C563.375 678.259 564.152 675.935 564.866 674.036Z"/><path fill="#514F4F" d="M555.998 683.466C555.374 682.12 555.037 681.022 555.152 679.549C557.198 680.711 559.879 680.179 562.465 680.024L562.327 682.269L562.193 682.555C560.459 684.552 558.326 684.621 555.998 683.466Z"/><path fill="#6C6A67" d="M555.998 683.466C556.791 681.024 560.242 682.069 562.193 682.555C560.459 684.552 558.326 684.621 555.998 683.466Z"/><path fill="#514F4F" d="M581.635 679.904L589.212 680.125C589.364 681.814 589.324 681.698 590.28 683.099C585.299 684.503 584.008 684.329 581.635 679.904Z"/><path fill="#252C37" d="M572.25 656.871C573.879 658.627 576.704 664.393 575.889 666.63L574.625 666.948C572.089 667.073 570.973 667.644 569.348 665.665C568.78 662.822 570.891 659.618 572.25 656.871Z"/><path fill="#FCFBF8" d="M477.978 644.205C484.566 643.888 493.375 644.06 500.025 644.213L500.029 650.763C499.978 651.675 500.119 653.316 499.534 653.596C495.877 655.346 492.399 654.467 489.014 653.608C487.041 651.214 490.451 652.146 487.005 650.947C485.132 652.791 485.778 656.444 485.89 659.051L498.508 658.967L498.483 666.011L485.99 665.975L485.626 673.645C489.778 673.608 496.881 672.596 499.718 674.689C500.749 676.314 500.585 678.311 500.137 680.132L498.773 684.442C492.316 684.215 485.736 684.602 479.335 684.111C478.287 683.218 478.376 681.637 478.104 679.957C477.556 669.311 477.931 655.05 477.978 644.205Z"/><path fill="#556A95" d="M478.104 679.957C485.417 680.242 492.813 680.152 500.137 680.132L498.773 684.442C492.316 684.215 485.736 684.602 479.335 684.111C478.287 683.218 478.376 681.637 478.104 679.957Z"/><path fill="#6C6A67" d="M487.005 650.947C489.169 650.385 496.964 650.812 500.029 650.763C499.978 651.675 500.119 653.316 499.534 653.596C495.877 655.346 492.399 654.467 489.014 653.608C487.041 651.214 490.451 652.146 487.005 650.947Z"/><path fill="#FCFBF8" d="M329.055 644.509C335.647 644.388 346.2 643.489 351.563 647.432C357.283 651.637 355.003 660.267 351.171 665.016C351.963 666.593 351.903 666.479 351.683 668.243C348.324 671.743 344.728 668.49 341.003 667.79C338.607 667.987 338.49 667.586 336.978 668.816C335.598 672.421 336.434 675.445 336.485 679.572C335.675 685.216 329.995 686.606 329.015 680.351L329.055 644.509Z"/><path fill="#514F4F" d="M351.171 665.016C351.963 666.593 351.903 666.479 351.683 668.243C348.324 671.743 344.728 668.49 341.003 667.79C345.474 667.424 347.343 667.519 351.171 665.016Z"/><path fill="#514F4F" d="M329.015 680.351C331.611 680.464 334.206 680.75 336.485 679.572C335.675 685.216 329.995 686.606 329.015 680.351Z"/><path fill="#252C37" d="M336.96 651.043C343.184 651.034 350.017 651.376 346.064 659.743C342.965 661.066 340.279 660.972 337.003 661.01L336.96 651.043Z"/><path fill="#FCFBF8" d="M645.078 644.502C652.425 644.12 659.537 643.914 666.886 644.517C666.953 646.45 666.861 648.647 666.826 650.602C666.6 652.118 666.754 653.487 665.394 654.351C662.15 656.414 657.382 653.978 655.504 651.186L654.43 650.929L652.845 651.178C651.613 653.346 652.218 655.901 652.479 658.453L665.416 658.743L665.472 665.679L652.387 665.698L652.444 673.466C657.269 673.448 662.723 673.301 667.497 673.456C667.532 675.561 667.625 677.85 667.545 679.936C667.241 681.52 667.233 683.203 666.243 684.095C661.859 684.462 649.12 684.643 644.864 684.187L645.125 679.905C644.832 668.408 645.05 656.07 645.078 644.502Z"/><defs><linearGradient id="gradient_20" gradientUnits="userSpaceOnUse" x1="654.77344" y1="678.95862" x2="656.20056" y2="685.23004"><stop offset="0" stop-color="#4A4448"/><stop offset="1" stop-color="#56544A"/></linearGradient></defs><path fill="url(#gradient_20)" d="M645.125 679.905C652.597 680.045 660.072 680.055 667.545 679.936C667.241 681.52 667.233 683.203 666.243 684.095C661.859 684.462 649.12 684.643 644.864 684.187L645.125 679.905Z"/><path fill="#514F4F" d="M666.826 650.602C666.6 652.118 666.754 653.487 665.394 654.351C662.15 656.414 657.382 653.978 655.504 651.186L654.43 650.929C657.511 650.382 663.481 650.59 666.826 650.602Z"/><path fill="#FCFBF8" d="M358.415 644.409C361.006 644.318 363.392 644.179 365.985 644.361C365.918 651.009 362.753 681.855 376.582 671.47C378.792 669.81 378.013 648.45 378.084 644.499L386.02 644.508C386.19 654.503 387.757 669.448 381.763 677.083C381.856 678.209 381.871 680.434 381.136 681.236C377.814 684.858 365.945 684.403 362.344 681.954C361.763 680.079 362.168 679.966 362.671 677.719C357.403 672.089 358.384 667.15 358.319 659.893C358.272 654.74 358.443 649.564 358.415 644.409Z"/><path fill="#6C6A67" d="M362.671 677.719C369.318 681.535 375.43 681.454 381.763 677.083C381.856 678.209 381.871 680.434 381.136 681.236C377.814 684.858 365.945 684.403 362.344 681.954C361.763 680.079 362.168 679.966 362.671 677.719Z"/><path fill="#FCFBF8" d="M589.108 674.375C590.532 672.933 591.447 671.367 593.346 670.771C598.111 671.153 602.017 675.536 606.109 673.928C607.587 672.612 607.482 672.497 608.074 670.664C606.932 664.775 581.35 665.359 591.453 649.412C597.325 640.143 616.576 643.112 612.204 653.381C610.799 654.553 611.59 654.197 609.717 654.419C606.757 652.772 606.311 649.917 600.172 651.415C598.965 651.71 599.286 651.647 598.409 652.544C597.889 654.186 597.693 654.282 598.257 655.922C602.24 661.071 616.86 659.236 616.191 670.584C616.016 673.554 614.243 675.971 612.355 678.142C610.313 684.101 597.408 685.783 593.264 683.054C591.723 682.703 591.696 682.527 590.28 683.099C589.324 681.698 589.364 681.814 589.212 680.125C589.678 678.059 589.074 677.246 588.225 675.287L589.108 674.375Z"/><path fill="#6C6A67" d="M596.541 679.744C602.897 680.563 606.369 681.127 612.355 678.142C610.313 684.101 597.408 685.783 593.264 683.054C594.684 682.002 595.919 681.791 597.599 681.349L596.663 680.702L596.541 679.744Z"/><path fill="#252C37" d="M589.108 674.375C591.748 677.041 592.969 678.276 596.541 679.744L596.663 680.702L597.599 681.349C595.919 681.791 594.684 682.002 593.264 683.054C591.723 682.703 591.696 682.527 590.28 683.099C589.324 681.698 589.364 681.814 589.212 680.125C589.678 678.059 589.074 677.246 588.225 675.287L589.108 674.375Z"/><path fill="#FCFBF8" d="M421.119 644.539C430.299 644.242 438.614 643.969 447.79 644.634C445.689 652.342 436.108 664.883 431.479 673.429L447.213 673.522C447.29 675.578 447.445 677.955 447.384 679.982L445.656 680.649L444.769 682.885C442.316 684.475 431.073 684.264 427.603 684.35C422.026 684.49 419.506 684.792 420.065 678.537C421.045 672.901 433.014 657.538 436.752 650.968L421.374 650.837L421.119 644.539Z"/><path fill="#514F4F" d="M447.384 679.982L445.656 680.649L444.769 682.885C442.316 684.475 431.073 684.264 427.603 684.35C422.026 684.49 419.506 684.792 420.065 678.537L420.66 679.923C423.242 680.459 443.405 680.008 447.384 679.982Z"/><path fill="#FCFBF8" d="M406.16 651.108C401.755 650.932 395.356 651.024 391.289 650.501C389.937 649.028 390.313 646.912 390.691 645.026C392.624 643.607 414.723 643.711 416.371 645.75C416.556 650.796 404.161 667.623 400.587 673.602C405.277 673.623 412.274 672.573 415.626 674.608C416.859 676.572 416.64 677.552 416.389 680.029C415.845 682.439 416.267 682.336 414.804 683.8C410.343 684.395 396.123 684.589 391.558 683.308C390.998 683.151 390.903 680.985 390.766 680.077C387.697 675.752 394.195 669.328 396.549 665.604C399.523 660.9 403.899 656.212 406.16 651.108Z"/><path fill="#514F4F" d="M390.766 680.077L416.389 680.029C415.845 682.439 416.267 682.336 414.804 683.8C410.343 684.395 396.123 684.589 391.558 683.308C390.998 683.151 390.903 680.985 390.766 680.077Z"/><path fill="#FCFBF8" d="M451.624 644.519C454.983 644.138 456.386 644.171 459.728 644.288L459.654 673.304C464.757 673.384 471.397 671.976 474.779 674.645C475.805 676.311 475.53 677.638 475.486 679.633L474.586 684.288C467.122 684.278 459.658 684.218 452.194 684.107L451.62 679.959C451.92 668.036 451.706 656.436 451.624 644.519Z"/><path fill="#6C6A67" d="M475.486 679.633L474.586 684.288C467.122 684.278 459.658 684.218 452.194 684.107L451.62 679.959C454.783 680.174 473.114 680.414 475.486 679.633Z"/><path fill="#1A9AE4" d="M615.241 412.965L616.689 411.582L617.378 411.874C618.533 414.958 618.049 423.181 617.971 426.88L617.918 441.068L586.937 441.386C589.523 438.774 592.88 435.183 595.616 432.877C601.735 426.205 608.891 419.989 615.241 412.965Z"/><path fill="#556A95" d="M617.971 426.88L617.918 441.068L586.937 441.386C589.523 438.774 592.88 435.183 595.616 432.877L596.511 433.823C600.367 435.158 612.723 434.589 617.273 434.508C617.534 433.018 617.445 431.655 617.425 430.143L617.971 426.88Z"/><path fill="#69C0E2" d="M615.241 412.965L616.689 411.582L617.378 411.874C618.533 414.958 618.049 423.181 617.971 426.88L617.425 430.143C614.332 427.594 615.521 417.34 615.241 412.965Z"/><path fill="#FCFBF8" d="M616.244 644.436C624.829 644.295 633.416 644.327 641.999 644.532C641.904 646.888 641.838 649.307 641.69 651.654L633.06 651.527C633.04 660.562 632.766 671.169 633.283 680.072C633.268 682.237 633.622 682.199 632.638 683.696C629.116 684.124 629.187 681.563 626.599 680.136L625.906 679.896C625.246 677.696 625.567 660.587 625.584 657.108C621.445 654.433 620.97 656.794 616.862 655.447C615.576 653.77 616.011 653.805 615.869 651.213L616.244 644.436Z"/><path fill="#252C37" d="M615.869 651.213C618.503 651.313 622.812 650.951 624.935 652.078C626.076 654.045 625.65 654.581 625.584 657.108C621.445 654.433 620.97 656.794 616.862 655.447C615.576 653.77 616.011 653.805 615.869 651.213Z"/><path fill="#514F4F" d="M633.283 680.072C633.268 682.237 633.622 682.199 632.638 683.696C629.116 684.124 629.187 681.563 626.599 680.136C629.268 680.301 630.609 680.261 633.283 680.072Z"/><path fill="#1A9AE4" d="M407.986 411.724C412.512 417.197 424.445 428.347 430.145 434.334C432.63 436.815 435.02 439.388 437.311 442.049C432.844 441.936 412.209 442.184 409.592 440.621C408.105 438.765 408.33 437.285 408.301 434.873C407.628 428.062 407.985 418.837 407.986 411.724Z"/><path fill="#556A95" d="M430.145 434.334C432.63 436.815 435.02 439.388 437.311 442.049C432.844 441.936 412.209 442.184 409.592 440.621C408.105 438.765 408.33 437.285 408.301 434.873C408.979 435.045 409.664 435.187 410.355 435.298C413.774 435.874 427.168 436.42 430.145 434.334Z"/><path fill="#7B1A0F" d="M498.739 614.666C503.607 616.311 506.545 631.789 506.772 636.622C506.959 640.616 501.065 639.238 498.644 638.944C495.139 638.129 492.648 636.824 489.604 635.054C491.845 629.428 495.539 619.401 498.739 614.666Z"/><path fill="#F2544D" d="M757.736 546.915C759.117 548.466 758.993 576.213 758.861 580.753L752.12 581.346L751.252 581.136C750.543 578.178 755.962 549.808 757.736 546.915Z"/><path fill="#050709" d="M614.946 704.012C617.455 704.022 617.736 703.58 619.376 704.743L619.802 706.781C620.063 711.126 620.06 717.456 619.788 721.89C619.56 726.367 619.472 729.983 619.562 734.46L614.416 734.487C614.719 728.807 614.947 723.905 614.892 718.207C615.116 714.004 614.945 708.328 614.946 704.012Z"/><path fill="#64513C" d="M416.012 570.23C416.011 568.695 416.002 568.483 416.297 566.989C417.636 566.301 417.509 566.656 419.478 567.256C423.04 567.172 429.438 566.735 432.539 567.768C430.423 568.591 430.196 568.621 428.478 570.031C426.341 571.001 418.583 570.362 416.012 570.23Z"/><path fill="#F3E3C1" d="M416.012 570.23C416.011 568.695 416.002 568.483 416.297 566.989C417.636 566.301 417.509 566.656 419.478 567.256L420.711 569.005L420.52 569.768C418.907 570.171 417.66 570.155 416.012 570.23Z"/><path fill="#EFF5E2" d="M432.539 567.768C434.688 567.554 437.48 566.998 439.358 567.798C439.835 569.156 439.798 568.475 439.226 569.883C436.639 570.596 431.48 569.997 428.478 570.031C430.196 568.621 430.423 568.591 432.539 567.768Z"/><path fill="#909FC4" d="M677.441 556.7L678.387 557.582C678.823 560.239 678.811 562.426 677.781 564.931L676.781 563.811C676.17 561.088 676.062 559.169 677.441 556.7Z"/></svg>