<?xml version="1.0" encoding="utf-8"?>
<!-- Generator: Adobe Illustrator 23.0.5, SVG Export Plug-In . SVG Version: 6.00 Build 0)  -->
<svg version="1.1" id="Layer_1" xmlns="http://www.w3.org/2000/svg" xmlns:xlink="http://www.w3.org/1999/xlink" x="0px" y="0px"
	 viewBox="0 0 609.9 608.52" style="enable-background:new 0 0 609.9 608.52;" xml:space="preserve">
<style type="text/css">
	.st0{fill:url(#SVGID_1_);}
	.st1{fill:#FFFFFF;}
</style>
<linearGradient id="SVGID_1_" gradientUnits="userSpaceOnUse" x1="9.094947e-13" y1="303.9124" x2="609.9033" y2="303.9124">
	<stop  offset="0" style="stop-color:#060094"/>
	<stop  offset="0.0453" style="stop-color:#050A9B"/>
	<stop  offset="0.2398" style="stop-color:#042FB7"/>
	<stop  offset="0.4344" style="stop-color:#024CCD"/>
	<stop  offset="0.6271" style="stop-color:#0160DD"/>
	<stop  offset="0.8167" style="stop-color:#006DE6"/>
	<stop  offset="1" style="stop-color:#0071E9"/>
</linearGradient>
<rect x="0" y="-1.04" class="st0" width="609.9" height="609.9"/>
<g>
	<path class="st1" d="M285.83,373.96l-4.07,4.07c-4.67,4.67-12.3,4.67-16.97,0l-68.52-68.52c-4.67-4.67-4.67-12.3,0-16.97l4.07-4.07
		c4.67-4.67,12.3-4.67,16.97,0l68.52,68.52C290.49,361.65,290.49,369.29,285.83,373.96z"/>
	<path class="st1" d="M403.36,231.28l4.07,4.07c4.67,4.67,4.67,12.3,0,16.97L285.61,374.14c-4.67,4.67-12.3,4.67-16.97,0l-4.07-4.07
		c-4.67-4.67-4.67-12.3,0-16.97l121.82-121.82C391.06,226.61,398.7,226.61,403.36,231.28z"/>
</g>
</svg>
