<?xml version="1.0" encoding="utf-8" ?><svg xmlns="http://www.w3.org/2000/svg" xmlns:xlink="http://www.w3.org/1999/xlink" width="1024" height="1024" viewBox="0 0 1024 1024"><path fill="white" d="M0 0L1024 0L1024 1024L0 1024L0 0Z"/><path fill="#07DDA9" d="M421.454 383.249L576.162 383.222L612.65 383.06C624.666 382.993 635.718 382.532 647.626 384.856C688.663 392.863 718.727 426.513 718.965 468.922C719.145 501.116 719.146 533.642 719.181 565.998L719.15 612.648C719.048 630.201 719.971 648.651 713.053 665.145C708.735 675.439 702.193 686.244 694.43 694.335C679.794 709.883 660.12 719.741 638.903 722.157C633.498 722.766 621.681 722.86 616.013 722.881C566.956 723.059 517.826 722.998 468.773 722.929L424.396 722.842C414.483 722.812 404.292 723.038 394.423 722.375C372.04 720.626 349.273 710.95 333.976 694.259C255.308 608.42 356.057 496.934 455.068 536.974C469.032 542.621 478.612 549.246 490.794 557.197C500.282 563.364 509.737 569.582 519.158 575.851C531.493 584.22 540.691 591.876 556.51 591.84C566.462 591.841 576.011 587.912 583.081 580.908C595.235 568.628 593.584 552.618 593.517 536.75C593.487 523.144 592.731 506.58 593.922 493.281C597.057 464.468 638.46 468.015 637.349 496.238C635.763 536.533 645.606 576.588 617.021 609.281C606.694 621.097 593.139 629.636 578.022 633.849C523.244 649.119 485.587 599.657 438.246 578.6C380.647 552.981 319.148 616.098 368.362 665.144C384.99 681.716 415.165 679.459 437.523 679.469L503.649 679.501L587.289 679.481C602.716 679.496 618.737 679.825 634.065 679.073C646.409 678.445 656.545 671.87 664.4 662.712C676.271 648.871 674.065 630.294 674.096 613.18L674.155 564.34L674.164 501.117C674.144 489.445 674.268 477.63 673.622 466.197C673.201 452.221 660.729 434.108 647.032 429.834C632.501 425.301 607.828 426.993 591.998 426.976L473.249 426.857L437.776 426.909C430.53 426.916 422.538 427.227 415.407 426.328C405.964 425.138 398.283 416.372 397.345 407.02C396.398 397.576 402.588 386.889 412.025 384.263C415.387 383.282 417.985 383.329 421.454 383.249Z"/><path fill="#09D0D6" d="M305.093 451.797C304.876 444.654 305.278 437.33 304.999 430.22C303.717 397.536 314.378 364.76 336.978 340.236C352.576 323.3 372.655 311.13 394.887 305.137C399.562 303.856 407.117 302.182 411.953 301.977C419.606 302.465 421.769 302.847 428.939 306.167C431.527 309.966 431.761 313.409 435.462 316.281C439.624 319.51 438.677 322.617 441.139 325.799C443.829 329.273 455.277 335.712 455.822 339.638C455.172 339.897 454.686 340.109 454.1 340.503C454.248 341.371 454.375 342.209 454.373 343.091L452.883 343.664C458.289 344.929 472.253 342.36 477.743 344.55C464.268 345.13 450.081 344.564 436.546 344.843C429.348 344.991 422.439 344.618 415.223 345.417C397.709 347.351 381.502 355.61 369.644 368.643C354.439 385.182 348.502 403.663 348.125 425.666C348.177 458.61 347.44 493.186 348.143 525.941C333.984 535.461 321.58 544.452 312.102 559.152C309.348 563.423 307.516 567.524 305.069 571.751C304.996 532.711 304.176 490.604 305.093 451.797Z"/><defs><linearGradient id="gradient_0" gradientUnits="userSpaceOnUse" x1="352.13113" y1="401.79361" x2="423.7153" y2="302.06558"><stop offset="0" stop-color="#16ACE8"/><stop offset="1" stop-color="#2263FC"/></linearGradient></defs><path fill="url(#gradient_0)" d="M305.093 451.797C304.876 444.654 305.278 437.33 304.999 430.22C303.717 397.536 314.378 364.76 336.978 340.236C352.576 323.3 372.655 311.13 394.887 305.137C399.562 303.856 407.117 302.182 411.953 301.977C419.606 302.465 421.769 302.847 428.939 306.167C431.527 309.966 431.761 313.409 435.462 316.281C439.624 319.51 438.677 322.617 441.139 325.799C443.829 329.273 455.277 335.712 455.822 339.638C455.172 339.897 454.686 340.109 454.1 340.503C454.248 341.371 454.375 342.209 454.373 343.091L452.883 343.664C458.289 344.929 472.253 342.36 477.743 344.55C464.268 345.13 450.081 344.564 436.546 344.843C429.348 344.991 422.439 344.618 415.223 345.417C397.709 347.351 381.502 355.61 369.644 368.643C354.439 385.182 348.502 403.663 348.125 425.666C344.13 417.419 351.638 398.603 353.373 390.389C353.484 389.864 345.688 382.864 344.3 382.848C339.246 380.841 334.229 381.391 328.824 380.411C326.408 379.973 317.643 376.351 315.568 376.657C313.412 380.053 311.951 385.809 310.683 389.628C305.156 406.271 306.395 420.792 306.031 437.78C305.961 441.043 305.807 449.044 305.093 451.797Z"/><defs><linearGradient id="gradient_1" gradientUnits="userSpaceOnUse" x1="642.04956" y1="271.09781" x2="514.07471" y2="403.16617"><stop offset="0" stop-color="#0004FF"/><stop offset="1" stop-color="#226EFC"/></linearGradient></defs><path fill="url(#gradient_1)" d="M411.953 301.977C419.859 300.423 441.507 300.983 450.665 300.999L515.563 300.977L604.882 301.052C620.978 301.076 639.793 300.379 655.401 302.039C684.123 305.094 711.945 330.789 716.907 359.254C719.083 371.737 718.825 387.559 718.868 400.439C710.492 378.693 696.579 363.436 675.041 353.908C665.689 349.809 655.812 347.037 645.693 345.673C633.236 344.099 610.577 344.848 597.001 344.855L512.484 344.839L489.363 344.803C486.972 344.793 479.724 344.867 477.743 344.55C472.253 342.36 458.289 344.929 452.883 343.664L454.373 343.091C454.375 342.209 454.248 341.371 454.1 340.503C454.686 340.109 455.172 339.897 455.822 339.638C455.277 335.712 443.829 329.273 441.139 325.799C438.677 322.617 439.624 319.51 435.462 316.281C431.761 313.409 431.527 309.966 428.939 306.167C421.769 302.847 419.606 302.465 411.953 301.977Z"/></svg>