<?xml version="1.0" encoding="utf-8" ?><svg xmlns="http://www.w3.org/2000/svg" xmlns:xlink="http://www.w3.org/1999/xlink" width="1024" height="1024" viewBox="0 0 1024 1024"><path fill="#1D3258" d="M0 0L1024 0L1024 1024L0 1024L0 0Z"/><path fill="#40DED2" d="M450.361 340.687C454.961 339.882 465.589 340.356 470.202 340.94C477.781 341.926 485.207 343.848 492.312 346.662C502.295 350.605 515.347 358.254 525.151 363.579C532.94 367.81 546.863 374.6 553.724 379.331C556.536 381.238 559.022 383.585 561.088 386.282C569.183 397.041 566.797 412.478 555.782 420.108C541.942 429.54 528.392 419.97 516.644 412.612C490.227 396.066 463.795 372.394 432.4 394.49C422.316 401.64 415.525 412.539 413.549 424.742C411.993 434.278 412.468 450.429 412.482 460.587L412.549 517.699L412.471 565.06C412.433 583.989 410.576 602.079 422.294 618.326C429.16 627.921 439.584 634.365 451.235 636.219C471.759 639.279 487.059 628.099 504.116 618.588L550.633 592.647L599.742 565.335C609.061 560.189 623.56 552.742 631.705 546.674C640.866 539.749 646.866 529.438 648.36 518.052C650.418 503.29 647.079 492.007 637.769 480.518C623.338 462.709 585.7 465.562 590.863 435.288L590.965 434.721C594.827 422.03 607.241 413.658 619.721 417.926C630.858 421.735 648.372 430.789 657.699 437.446C677.293 451.433 690.441 472.712 694.183 496.493C698.015 520.653 691.976 545.339 677.423 565.001C671.63 573.055 664.493 580.052 656.326 585.685C647.056 592.125 634.518 598.613 624.45 604.206L571.899 633.249L530.477 656.314C513.463 665.901 493.665 678.361 474.273 681.305C449.694 685.023 424.647 678.799 404.668 664.008C385.693 649.902 371.26 627.645 367.934 604.088C366.467 593.697 366.913 579.415 366.923 568.55L366.969 515.033L366.937 458.033C366.934 445.867 366.413 429.135 368.396 417.578C370.927 403.233 376.822 389.693 385.597 378.067C402.39 355.941 423.038 344.364 450.361 340.687Z"/><path fill="#40DED2" d="M478.451 451.038C481.711 450.989 483.806 451.887 486.623 453.508C515.087 469.897 543.886 485.644 572.52 501.726C576.804 503.831 580.803 508.446 579.589 513.578C578.259 519.201 570.565 523.293 565.963 525.891C556.708 531.114 547.473 536.29 538.225 541.472C527.185 547.726 516.186 554.052 505.228 560.45C498.483 564.358 486.974 571.701 479.967 573.729C478.326 573.38 476.715 572.993 475.174 572.312C472.078 570.942 469.506 568.305 468.471 565.042C466.626 559.224 467.151 475.69 467.777 464.672C467.922 462.112 468.018 459.318 469.314 457.047C471.284 453.596 474.786 452.041 478.451 451.038Z"/></svg>